<?xml version="1.0" encoding="utf-8"?>
<!-- Generator: Adobe Illustrator 18.1.1, SVG Export Plug-In . SVG Version: 6.00 Build 0)  -->
<svg version="1.1" id="Layer_1" xmlns="http://www.w3.org/2000/svg" xmlns:xlink="http://www.w3.org/1999/xlink" x="0px" y="0px"
	 viewBox="0 0 878 354.1" enable-background="new 0 0 878 354.1" xml:space="preserve">
<rect y="20" fill="none" width="800" height="26.2"/>
<text transform="matrix(1 0 0 1 267.8887 38.5039)" font-family="'LucidaSans'" font-size="24">Creating a New Project</text>
<path fill="none" stroke="#000000" stroke-width="5" stroke-miterlimit="10" d="M176.8,179.9H22.9c-6.6,0-12-5.4-12-12v-58.3
	c0-6.6,5.4-12,12-12h153.9c6.6,0,12,5.4,12,12v58.3C188.8,174.5,183.4,179.9,176.8,179.9z"/>
<rect x="8" y="121.6" fill="none" width="183.8" height="42.4"/>
<text transform="matrix(1 0 0 1 21.9901 135.4883)" font-family="'LucidaSans'" font-size="18">Open up Software</text>
<rect x="308.1" y="121.6" fill="none" width="183.8" height="42.4"/>
<text transform="matrix(1 0 0 1 333.2114 135.4883)"><tspan x="0" y="0" font-family="'LucidaSans'" font-size="18">Hit New Project</tspan><tspan x="38.2" y="21.6" font-family="'LucidaSans'" font-size="18">Button</tspan></text>
<path fill="none" stroke="#000000" stroke-width="5" stroke-miterlimit="10" d="M474.2,179.9H320.3c-6.6,0-12-5.4-12-12v-58.3
	c0-6.6,5.4-12,12-12h153.9c6.6,0,12,5.4,12,12v58.3C486.2,174.5,480.8,179.9,474.2,179.9z"/>
<path fill="none" stroke="#000000" stroke-width="5" stroke-miterlimit="10" d="M779.1,179.9H625.1c-6.6,0-12-5.4-12-12v-58.3
	c0-6.6,5.4-12,12-12h153.9c6.6,0,12,5.4,12,12v58.3C791.1,174.5,785.7,179.9,779.1,179.9z"/>
<path fill="none" stroke="#000000" stroke-width="5" stroke-miterlimit="10" d="M176.8,312H22.9c-6.6,0-12-5.4-12-12v-58.3
	c0-6.6,5.4-12,12-12h153.9c6.6,0,12,5.4,12,12V300C188.8,306.6,183.4,312,176.8,312z"/>
<g>
	<path fill="none" stroke="#000000" stroke-width="4" stroke-miterlimit="10" d="M215.6,136.5"/>
	<polyline fill="none" stroke="#000000" stroke-width="4" stroke-miterlimit="10" points="202,136.5 292.9,136.5 277.5,119.6 	"/>
	<path fill="none" stroke="#000000" stroke-width="4" stroke-miterlimit="10" d="M278.7,157.9"/>
	<path fill="none" stroke="#000000" stroke-width="4" stroke-miterlimit="10" d="M292.9,136.5"/>
	<line fill="none" stroke="#000000" stroke-width="4" stroke-miterlimit="10" x1="276.6" y1="155.9" x2="295.4" y2="136.6"/>
</g>
<rect x="308.1" y="253.7" fill="none" width="183.8" height="42.4"/>
<text transform="matrix(1 0 0 1 349.2338 267.6012)" font-family="'LucidaSans'" font-size="18">Hit Confirm</text>
<path fill="none" stroke="#000000" stroke-width="5" stroke-miterlimit="10" d="M474.2,312H320.3c-6.6,0-12-5.4-12-12v-58.3
	c0-6.6,5.4-12,12-12h153.9c6.6,0,12,5.4,12,12V300C486.2,306.6,480.8,312,474.2,312z"/>
<g>
	<path fill="none" stroke="#000000" stroke-width="4" stroke-miterlimit="10" d="M215.6,268.6"/>
	<polyline fill="none" stroke="#000000" stroke-width="4" stroke-miterlimit="10" points="202,268.6 292.9,268.6 277.5,251.7 	"/>
	<path fill="none" stroke="#000000" stroke-width="4" stroke-miterlimit="10" d="M278.7,290"/>
	<path fill="none" stroke="#000000" stroke-width="4" stroke-miterlimit="10" d="M292.9,268.6"/>
	<line fill="none" stroke="#000000" stroke-width="4" stroke-miterlimit="10" x1="276.6" y1="288" x2="295.4" y2="268.8"/>
</g>
<g>
	<path fill="none" stroke="#000000" stroke-width="4" stroke-miterlimit="10" d="M515.1,134.4"/>
	<polyline fill="none" stroke="#000000" stroke-width="4" stroke-miterlimit="10" points="500,134.4 601.1,134.4 584,117.5 	"/>
	<path fill="none" stroke="#000000" stroke-width="4" stroke-miterlimit="10" d="M585.3,155.8"/>
	<path fill="none" stroke="#000000" stroke-width="4" stroke-miterlimit="10" d="M601.1,134.4"/>
	<line fill="none" stroke="#000000" stroke-width="4" stroke-miterlimit="10" x1="582.9" y1="153.8" x2="603.9" y2="134.5"/>
</g>
<rect x="613.1" y="126" fill="none" width="177.9" height="38"/>
<text transform="matrix(1 0 0 1 619.7588 139.8779)"><tspan x="0" y="0" font-family="'LucidaSans'" font-size="18">Navigate to Project</tspan><tspan x="42.4" y="21.6" font-family="'LucidaSans'" font-size="18">Directory</tspan></text>
<rect x="20.8" y="248.3" fill="none" width="158" height="51"/>
<text transform="matrix(1 0 0 1 55.0356 260.6846)"><tspan x="0" y="0" font-family="'LucidaSans'" font-size="16">Enter Name </tspan><tspan x="-2.7" y="19.2" font-family="'LucidaSans'" font-size="16">and Options</tspan></text>
<path fill="none" stroke="#000000" stroke-width="4" stroke-miterlimit="10" d="M812.6,138.7c0,0,37.5,60.9-39,63.9
	S77.1,177.8,99.8,213.1"/>
<polyline fill="none" stroke="#000000" stroke-width="4" stroke-miterlimit="10" points="93,187 98.6,214.6 126.7,211.7 "/>
<path fill="none" stroke="#000000" stroke-width="4" stroke-miterlimit="10" d="M316,270.8"/>
</svg>
