<?xml version="1.0" encoding="utf-8"?>
<!-- Generator: Adobe Illustrator 17.1.0, SVG Export Plug-In . SVG Version: 6.00 Build 0)  -->
<!DOCTYPE svg PUBLIC "-//W3C//DTD SVG 1.1//EN" "http://www.w3.org/Graphics/SVG/1.1/DTD/svg11.dtd">
<svg version="1.1" id="Layer_1" xmlns="http://www.w3.org/2000/svg" xmlns:xlink="http://www.w3.org/1999/xlink" x="0px" y="0px"
	 viewBox="0 0 1500 1000" enable-background="new 0 0 1500 1000" xml:space="preserve">
<path fill="none" stroke="#000000" stroke-width="3" stroke-miterlimit="10" d="M651.2,428.2c0,3.6-2.9,6.5-6.5,6.5H18.8
	c-3.6,0-6.5-2.9-6.5-6.5V23c0-3.6,2.9-6.5,6.5-6.5h625.9c3.6,0,6.5,2.9,6.5,6.5V428.2z"/>
<line fill="#FFFFFF" stroke="#000000" stroke-width="3" stroke-miterlimit="10" x1="12.2" y1="41.5" x2="651.2" y2="41.5"/>
<rect x="20.9" y="22.1" fill="none" width="31.9" height="16.4"/>
<text transform="matrix(1 0 0 1 20.929 32.9971)" font-family="'ArialMT'" font-size="15.2272">File</text>
<rect x="71.7" y="22.1" fill="none" width="62.1" height="16.4"/>
<text transform="matrix(1 0 0 1 71.7429 32.9971)" font-family="'ArialMT'" font-size="15.2272">Window</text>
<rect x="162.2" y="22.1" fill="none" width="59.4" height="16.4"/>
<text transform="matrix(1 0 0 1 162.1751 32.9971)" font-family="'ArialMT'" font-size="15.2272">Options</text>
<polyline stroke="#000000" stroke-width="3" stroke-miterlimit="10" points="104.6,41.5 104.6,75.7 104.6,434.7 "/>
<line stroke="#000000" stroke-width="3" stroke-miterlimit="10" x1="522.7" y1="41.5" x2="522.7" y2="434.7"/>
<line stroke="#000000" stroke-width="3" stroke-miterlimit="10" x1="522.7" y1="82" x2="104.6" y2="82"/>
<rect x="14" y="45.1" fill="none" width="92.4" height="71"/>
<text transform="matrix(1 0 0 1 14.0222 61.148)"><tspan x="0" y="0" font-family="'ArialMT'" font-size="22.428">Project </tspan><tspan x="0" y="26.9" font-family="'ArialMT'" font-size="22.428">Explorer</tspan></text>
<line stroke="#000000" stroke-width="2" stroke-miterlimit="10" x1="20.9" y1="110" x2="88.5" y2="110"/>
<polyline fill="none" stroke="#000000" stroke-width="2" stroke-miterlimit="10" points="30.6,110 30.6,142.3 36.9,142.3 "/>
<polyline fill="none" stroke="#000000" stroke-width="2" stroke-miterlimit="10" points="30.6,142.3 30.6,158.7 43.4,158.7 "/>
<path fill="none" stroke="#000000" stroke-miterlimit="10" d="M40.4,142.6c1.2-1.7,3-3,4.9-3.7c0.8,1.2,1.1,2.7,0.8,4.1
	c1.1-0.6,2.2-1.2,3.2-1.8c0.3,1.1,0.8,2.2,1.8,2.7c0.4,0.2,0.9,0.2,1.3,0.2c2.5,0.1,5.4,0,6.9-2c0.3,0.5,0.5,1,0.8,1.6
	c1.5-0.5,3.1-0.9,4.6-1.4c0.5-0.1,1-0.3,1.4-0.2c0.6,0.1,1.1,0.5,1.6,0.8c4.8,3.3,11.4,3.7,16.6,1.1"/>
<path fill="none" stroke="#000000" stroke-miterlimit="10" d="M46.8,160.7c-0.5-1-0.8-2.1-0.6-3.2c0.3-1.1,1.4-2,2.5-1.6
	c1.4,0.5,1.4,2.4,2.3,3.6c1,1.3,3.1,1.3,4.6,0.8s3-1.5,4.7-1.7c0.1,0.5,0.2,0.9,0.2,1.4c1.8-0.3,3.6-0.6,5.4-0.8
	c0.1,0.6,0.2,1.2,0.3,1.8c1.4-0.8,3-1.1,4.5-0.9c0.6,0.1,1.2,0.2,1.7,0.1c1.2-0.2,2.3-1.5,3.3-0.8c0,0.5,0,0.9,0,1.4
	c2.4-0.1,4.8-0.2,7.2-0.2"/>
<line fill="none" stroke="#000000" stroke-width="2" stroke-miterlimit="10" x1="30.6" y1="126.2" x2="52.6" y2="126.2"/>
<polyline fill="none" stroke="#000000" stroke-width="2" stroke-miterlimit="10" points="38.2,158.7 38.2,176.6 58,176.6 "/>
<path fill="none" stroke="#000000" stroke-miterlimit="10" d="M60.3,176.9c1.5-0.7,3.1-1.3,4.6-2c0.2-0.1,0.5-0.2,0.7-0.1
	c0.2,0.1,0.4,0.3,0.3,0.5c2.2-0.2,4.4-0.1,6.6,0.3c0.9,0.2,1.8,0.5,2.4,1.1c0.7,0.6,1,1.6,0.7,2.4c0.7-0.7,1.8-1.1,2.8-1.4
	c0.9-0.3,1.9-0.6,2.8-0.9"/>
<path fill="none" stroke="#000000" stroke-miterlimit="10" d="M57.6,130.4c0-2.9,1-5.7,2.7-8c0.7,0,1.4,0,2,0c0.7,2.1,1.4,4.2,2,6.4
	c2.5-0.2,4.6-2.3,7.2-2.4c1.4-0.1,3.4,0.1,3.6-1.3c0.6-0.1,1.2,0.1,1.7,0.4c0,0.7,0.1,1.3,0.5,1.9c2.5-0.4,5.1-0.2,7.3,0.8"/>
<path fill="none" stroke="#000000" stroke-width="2" stroke-miterlimit="10" d="M94.8,256.6c0,4.8-4.8,8.7-10.8,8.7H31.7
	c-5.9,0-10.8-3.9-10.8-8.7v-29.1c0-4.8,4.8-8.7,10.8-8.7H84c5.9,0,10.8,3.9,10.8,8.7V256.6z"/>
<rect x="26.1" y="230.4" fill="none" width="68.2" height="25.6"/>
<text transform="matrix(1 0 0 1 26.1326 245.2222)" font-family="'ArialMT'" font-size="20.6338">History</text>
<rect x="116.9" y="51.2" fill="none" width="178.8" height="23.9"/>
<text transform="matrix(1 0 0 1 116.8914 65.9468)" font-family="'ArialMT'" font-size="20.6338">Current Changes:</text>
<line stroke="#000000" stroke-width="2" stroke-miterlimit="10" x1="104.9" y1="142.3" x2="435.1" y2="142.3"/>
<line stroke="#000000" stroke-width="2" stroke-miterlimit="10" x1="104.9" y1="206.8" x2="435.1" y2="206.8"/>
<line stroke="#000000" stroke-width="2" stroke-miterlimit="10" x1="104.9" y1="271.4" x2="435.1" y2="271.4"/>
<line stroke="#000000" stroke-width="2" stroke-miterlimit="10" x1="104.9" y1="335.9" x2="435.1" y2="335.9"/>
<rect x="118.7" y="99.6" fill="none" width="95.1" height="22.8"/>
<text transform="matrix(1 0 0 1 118.6858 114.3916)" font-family="'ArialMT'" font-size="20.6338">File name</text>
<path fill="none" stroke="#000000" stroke-miterlimit="10" d="M217.1,112.4c4.8-3.8,10.4-6.8,16.2-8.7c1.4-0.5,3-0.9,4.4-0.5
	c4.1,1.1,4.2,6.8,3.4,10.9c7.3-0.3,14.6-0.7,22-1c2.4-0.1,4.9-0.2,7.1,0.8c2.2,1,3.9,3.5,3.2,5.8c3.7-7,7.4-14,11.1-20.9
	c1,8.8,2.1,17.6,3.1,26.3c9.5-4.1,13.1-17.4,23.2-19.8c0.5,1.4,0.9,2.7,1.4,4.1c5-1.9,9,4.7,14.1,6.2c1.6,0.5,3.3,0.5,5,0.5
	c8.5-0.1,17.2,0.4,25.4,2.7c1.7,0.5,3.4,1,5.1,1c2.6-0.1,4.9-1.6,7.5-1.9c2.3-0.2,4.5,0.6,6.7,1.1c8.3,1.9,17,0.2,25.4-1.4"/>
<rect x="118.7" y="162.4" fill="none" width="95.1" height="22.8"/>
<text transform="matrix(1 0 0 1 118.6858 177.1885)" font-family="'ArialMT'" font-size="20.6338">File name</text>
<path fill="none" stroke="#000000" stroke-miterlimit="10" d="M217.1,175.2c4.8-3.8,10.4-6.8,16.2-8.7c1.4-0.5,3-0.9,4.4-0.5
	c4.1,1.1,4.2,6.8,3.4,10.9c7.3-0.3,14.6-0.7,22-1c2.4-0.1,4.9-0.2,7.1,0.8c2.2,1,3.9,3.5,3.2,5.8c3.7-7,7.4-14,11.1-20.9
	c1,8.8,2.1,17.6,3.1,26.3c9.5-4.1,13.1-17.4,23.2-19.8c0.5,1.4,0.9,2.7,1.4,4.1c5-1.9,9,4.7,14.1,6.2c1.6,0.5,3.3,0.5,5,0.5
	c8.5-0.1,17.2,0.4,25.4,2.7c1.7,0.5,3.4,1,5.1,1c2.6-0.1,4.9-1.6,7.5-1.9c2.3-0.2,4.5,0.6,6.7,1.1c8.3,1.9,17,0.2,25.4-1.4"/>
<rect x="118.7" y="225.2" fill="none" width="95.1" height="22.8"/>
<text transform="matrix(1 0 0 1 118.6858 239.9854)" font-family="'ArialMT'" font-size="20.6338">File name</text>
<path fill="none" stroke="#000000" stroke-miterlimit="10" d="M217.1,238c4.8-3.8,10.4-6.8,16.2-8.7c1.4-0.5,3-0.9,4.4-0.5
	c4.1,1.1,4.2,6.8,3.4,10.9c7.3-0.3,14.6-0.7,22-1c2.4-0.1,4.9-0.2,7.1,0.8c2.2,1,3.9,3.5,3.2,5.8c3.7-7,7.4-14,11.1-20.9
	c1,8.8,2.1,17.6,3.1,26.3c9.5-4.1,13.1-17.4,23.2-19.8c0.5,1.4,0.9,2.7,1.4,4.1c5-1.9,9,4.7,14.1,6.2c1.6,0.5,3.3,0.5,5,0.5
	c8.5-0.1,17.2,0.4,25.4,2.7c1.7,0.5,3.4,1,5.1,1c2.6-0.1,4.9-1.6,7.5-1.9c2.3-0.2,4.5,0.6,6.7,1.1c8.3,1.9,17,0.2,25.4-1.4"/>
<rect x="118.7" y="288" fill="none" width="95.1" height="22.8"/>
<text transform="matrix(1 0 0 1 118.6858 302.7822)" font-family="'ArialMT'" font-size="20.6338">File name</text>
<path fill="none" stroke="#000000" stroke-miterlimit="10" d="M217.1,300.8c4.8-3.8,10.4-6.8,16.2-8.7c1.4-0.5,3-0.9,4.4-0.5
	c4.1,1.1,4.2,6.8,3.4,10.9c7.3-0.3,14.6-0.7,22-1c2.4-0.1,4.9-0.2,7.1,0.8s3.9,3.5,3.2,5.8c3.7-7,7.4-14,11.1-20.9
	c1,8.8,2.1,17.6,3.1,26.3c9.5-4.1,13.1-17.4,23.2-19.8c0.5,1.4,0.9,2.7,1.4,4.1c5-1.9,9,4.7,14.1,6.2c1.6,0.5,3.3,0.5,5,0.5
	c8.5-0.1,17.2,0.4,25.4,2.7c1.7,0.5,3.4,1,5.1,1c2.6-0.1,4.9-1.6,7.5-1.9c2.3-0.2,4.5,0.6,6.7,1.1c8.3,1.9,17,0.2,25.4-1.4"/>
<rect x="436.3" y="85.6" fill="none" width="77.8" height="14.1"/>
<text transform="matrix(1 0 0 1 436.2669 95.8408)" font-family="'ArialMT'" font-size="14.354">Changes</text>
<path fill="none" stroke="#000000" stroke-miterlimit="10" d="M443.5,105.4c3-0.7,6-3.3,8.8-2.1c0.3,1.5,0.5,2.9,0.8,4.4
	c0.7-0.1,1.2,0.5,1.6,1c2.8,3,8.8,0.3,13,1.9c0.7,0.3,1.3,0.7,2.1,0.8c2.5,0.6,5-1.5,5.3-3.7c0.5,0.1,1.1,0.2,1.6,0.2
	c2.3,1.9,5,3.4,8,4.3c0.5-0.7,0.8-1.6,0.6-2.5c6.9,0.9,14.2,0.1,20.7-2.1"/>
<path fill="none" stroke="#000000" stroke-miterlimit="10" d="M445.4,120.4c2.5-2.6,6.1-4.6,10-5.4c0,0.5,0.1,1.1,0.1,1.6
	c0.8,0.6,1.6,1.2,2.4,1.8c2.7,1.8,6.1,3,9.5,3.5c0.8,0.1,1.7,0.2,2.5,0c1.4-0.3,2.7-1.3,3-2.5c0.3,0.9,1.2,2.1,2.3,1.7
	c-0.3,1.8,2,3.5,4.1,3c0.4-1.9,1.2-3.8,2.5-5.4c2.1-0.2,4.4-0.4,6.2,0.6c1.3,0.8,2,2.2,3.3,3s3.9,0.3,3.7-1
	c4.6,0.4,9.1,0.9,13.7,1.3c0.2-0.5,0.5-1,0.7-1.5"/>
<path fill="none" stroke="#000000" stroke-miterlimit="10" d="M446.5,133.8c2.3-0.6,4.7-0.8,7.1-0.6c0,0.5,0,1,0,1.4
	c4.1,0.8,7.2-3.3,11.3-4c1.1-0.2,2.6,0.6,1.9,1.3c1.7-0.4,3.4-0.7,5.1-0.5c1.7,0.2,3.4,1.1,3.9,2.5c10.9-0.8,21.9-1,32.8-0.6"/>
<rect x="436.3" y="149.2" fill="none" width="77.8" height="14.1"/>
<text transform="matrix(1 0 0 1 436.2669 159.4888)" font-family="'ArialMT'" font-size="14.354">Changes</text>
<path fill="none" stroke="#000000" stroke-miterlimit="10" d="M443.5,169c3-0.7,6-3.3,8.8-2.1c0.3,1.5,0.5,2.9,0.8,4.4
	c0.7-0.1,1.2,0.5,1.6,1c2.8,3,8.8,0.3,13,1.9c0.7,0.3,1.3,0.7,2.1,0.8c2.5,0.6,5-1.5,5.3-3.7c0.5,0.1,1.1,0.2,1.6,0.2
	c2.3,1.9,5,3.4,8,4.3c0.5-0.7,0.8-1.6,0.6-2.5c6.9,0.9,14.2,0.1,20.7-2.1"/>
<path fill="none" stroke="#000000" stroke-miterlimit="10" d="M445.4,184.1c2.5-2.6,6.1-4.6,10-5.4c0,0.5,0.1,1.1,0.1,1.6
	c0.8,0.6,1.6,1.2,2.4,1.8c2.7,1.8,6.1,3,9.5,3.5c0.8,0.1,1.7,0.2,2.5,0c1.4-0.3,2.7-1.3,3-2.5c0.3,0.9,1.2,2.1,2.3,1.7
	c-0.3,1.8,2,3.5,4.1,3c0.4-1.9,1.2-3.8,2.5-5.4c2.1-0.2,4.4-0.4,6.2,0.6c1.3,0.8,2,2.2,3.3,3s3.9,0.3,3.7-1
	c4.6,0.4,9.1,0.9,13.7,1.3c0.2-0.5,0.5-1,0.7-1.5"/>
<path fill="none" stroke="#000000" stroke-miterlimit="10" d="M446.5,197.4c2.3-0.6,4.7-0.8,7.1-0.6c0,0.5,0,1,0,1.4
	c4.1,0.8,7.2-3.3,11.3-4c1.1-0.2,2.6,0.6,1.9,1.3c1.7-0.4,3.4-0.7,5.1-0.5c1.7,0.2,3.4,1.1,3.9,2.5c10.9-0.8,21.9-1,32.8-0.6"/>
<rect x="436.3" y="212.9" fill="none" width="77.8" height="14.1"/>
<text transform="matrix(1 0 0 1 436.2669 223.1367)" font-family="'ArialMT'" font-size="14.354">Changes</text>
<path fill="none" stroke="#000000" stroke-miterlimit="10" d="M443.5,232.7c3-0.7,6-3.3,8.8-2.1c0.3,1.5,0.5,2.9,0.8,4.4
	c0.7-0.1,1.2,0.5,1.6,1c2.8,3,8.8,0.3,13,1.9c0.7,0.3,1.3,0.7,2.1,0.8c2.5,0.6,5-1.5,5.3-3.7c0.5,0.1,1.1,0.2,1.6,0.2
	c2.3,1.9,5,3.4,8,4.3c0.5-0.7,0.8-1.6,0.6-2.5c6.9,0.9,14.2,0.1,20.7-2.1"/>
<path fill="none" stroke="#000000" stroke-miterlimit="10" d="M445.4,247.7c2.5-2.6,6.1-4.6,10-5.4c0,0.5,0.1,1.1,0.1,1.6
	c0.8,0.6,1.6,1.2,2.4,1.8c2.7,1.8,6.1,3,9.5,3.5c0.8,0.1,1.7,0.2,2.5,0c1.4-0.3,2.7-1.3,3-2.5c0.3,0.9,1.2,2.1,2.3,1.7
	c-0.3,1.8,2,3.5,4.1,3c0.4-1.9,1.2-3.8,2.5-5.4c2.1-0.2,4.4-0.4,6.2,0.6c1.3,0.8,2,2.2,3.3,3c1.3,0.8,3.9,0.3,3.7-1
	c4.6,0.4,9.1,0.9,13.7,1.3c0.2-0.5,0.5-1,0.7-1.5"/>
<path fill="none" stroke="#000000" stroke-miterlimit="10" d="M446.5,261.1c2.3-0.6,4.7-0.8,7.1-0.6c0,0.5,0,1,0,1.4
	c4.1,0.8,7.2-3.3,11.3-4c1.1-0.2,2.6,0.6,1.9,1.3c1.7-0.4,3.4-0.7,5.1-0.5s3.4,1.1,3.9,2.5c10.9-0.8,21.9-1,32.8-0.6"/>
<rect x="436.3" y="276.5" fill="none" width="77.8" height="14.1"/>
<text transform="matrix(1 0 0 1 436.2669 286.7847)" font-family="'ArialMT'" font-size="14.354">Changes</text>
<path fill="none" stroke="#000000" stroke-miterlimit="10" d="M443.5,296.3c3-0.7,6-3.3,8.8-2.1c0.3,1.5,0.5,2.9,0.8,4.4
	c0.7-0.1,1.2,0.5,1.6,1c2.8,3,8.8,0.3,13,1.9c0.7,0.3,1.3,0.7,2.1,0.8c2.5,0.6,5-1.5,5.3-3.7c0.5,0.1,1.1,0.2,1.6,0.2
	c2.3,1.9,5,3.4,8,4.3c0.5-0.7,0.8-1.6,0.6-2.5c6.9,0.9,14.2,0.1,20.7-2.1"/>
<path fill="none" stroke="#000000" stroke-miterlimit="10" d="M445.4,311.4c2.5-2.6,6.1-4.6,10-5.4c0,0.5,0.1,1.1,0.1,1.6
	c0.8,0.6,1.6,1.2,2.4,1.8c2.7,1.8,6.1,3,9.5,3.5c0.8,0.1,1.7,0.2,2.5,0c1.4-0.3,2.7-1.3,3-2.5c0.3,0.9,1.2,2.1,2.3,1.7
	c-0.3,1.8,2,3.5,4.1,3c0.4-1.9,1.2-3.8,2.5-5.4c2.1-0.2,4.4-0.4,6.2,0.6c1.3,0.8,2,2.2,3.3,3s3.9,0.3,3.7-1
	c4.6,0.4,9.1,0.9,13.7,1.3c0.2-0.5,0.5-1,0.7-1.5"/>
<path fill="none" stroke="#000000" stroke-miterlimit="10" d="M446.5,324.7c2.3-0.6,4.7-0.8,7.1-0.6c0,0.5,0,1,0,1.4
	c4.1,0.8,7.2-3.3,11.3-4c1.1-0.2,2.6,0.6,1.9,1.3c1.7-0.4,3.4-0.7,5.1-0.5s3.4,1.1,3.9,2.5c10.9-0.8,21.9-1,32.8-0.6"/>
<path fill="none" stroke="#000000" stroke-miterlimit="10" d="M639,125c0,5.9-4.8,10.8-10.8,10.8h-86.7c-5.9,0-10.8-4.8-10.8-10.8
	V81.7c0-5.9,4.8-10.8,10.8-10.8h86.7c5.9,0,10.8,4.8,10.8,10.8V125z"/>
<rect x="535.5" y="76.7" fill="none" width="103.5" height="53.3"/>
<text transform="matrix(1 0 0 1 535.5486 93.4214)"><tspan x="0" y="0" font-family="'ArialMT'" font-size="23.3252">Create</tspan><tspan x="0" y="28" font-family="'ArialMT'" font-size="23.3252">Snapshot</tspan></text>
<rect x="534.4" y="146.3" fill="none" width="104.7" height="22.1"/>
<rect x="534.4" y="146.3" fill="none" stroke="#000000" stroke-miterlimit="10" width="104.7" height="22.1"/>
<text transform="matrix(1 0 0 1 535.5486 162.022)" fill="#414042" font-family="'ArialMT'" font-size="14.354">Message...</text>
<rect x="533.2" y="190.5" fill="none" width="104.7" height="135.8"/>
<text transform="matrix(1 0 0 1 533.156 200.8042)"><tspan x="0" y="0" font-family="'ArialMT'" font-size="14.354">Info:</tspan><tspan x="0" y="17.2" font-family="'ArialMT'" font-size="14.354">    •</tspan><tspan x="0" y="34.4" font-family="'ArialMT'" font-size="14.354">    •</tspan><tspan x="0" y="51.7" font-family="'ArialMT'" font-size="14.354">    •</tspan></text>
<path fill="none" stroke="#000000" stroke-miterlimit="10" d="M558.1,217.2c4.7-2.3,10.5-2.1,15,0.5c0.3-0.8,0.5-1.6,0.8-2.5
	c2.1-0.5,3.4-2.7,4.9-4.3s4.2-2.8,5.8-1.3c0.7,0.7,0.9,1.7,1.5,2.4c0.9,1.1,2.4,1.4,3.7,1.7c5.1,1,10.3,2,15.3,0.8
	c3.1-0.7,5.9-2.3,9.1-2.4c2.5-0.1,4.8,0.7,7.2,1.5c4.8,1.6,9.7,3.3,14.5,4.9"/>
<path fill="none" stroke="#000000" stroke-miterlimit="10" d="M558.8,233.3c8.1-1,16.3-1.5,24.5-1.5c7,0,14.1,0.3,21.1,0.6
	c2,0.1,4.1,0.2,6,0.7c2.8,0.7,5.3,2.1,8,3c2.7,0.9,5.8,1.3,8.3-0.1c0.9-0.5,2.7-0.3,2.1,0.5"/>
<path fill="none" stroke="#000000" stroke-miterlimit="10" d="M563,253.2c2.3-2.1,4.5-4.2,6.8-6.4c0.6,0,1.1-0.1,1.7-0.1
	c1,3.3,1.6,6.7,1.9,10.1c2.1,0.8,4.3-1.2,5.4-3.2c1-2,1.7-4.4,3.6-5.7c1.4,1.7,2.2,3.7,2.4,5.9c4.7-2.2,9.9-3.5,15.1-3.6
	c0.9,0,2.2,0.9,1.5,1.4c8.6-0.6,17.3,0.3,25.6,2.8"/>
<path fill="none" stroke="#707071" stroke-width="3" stroke-miterlimit="10" d="M1451.4,433.4c0,3.6-2.9,6.5-6.5,6.5H818.9
	c-3.6,0-6.5-2.9-6.5-6.5V28.2c0-3.6,2.9-6.5,6.5-6.5h625.9c3.6,0,6.5,2.9,6.5,6.5V433.4z"/>
<line fill="#FFFFFF" stroke="#707071" stroke-width="3" stroke-miterlimit="10" x1="812.4" y1="46.7" x2="1451.4" y2="46.7"/>
<rect x="821.1" y="27.3" fill="none" width="31.9" height="16.4"/>
<text transform="matrix(1 0 0 1 821.1027 38.2226)" stroke="#707071" font-family="'ArialMT'" font-size="15.2272">File</text>
<rect x="871.9" y="27.3" fill="none" width="62.1" height="16.4"/>
<text transform="matrix(1 0 0 1 871.9167 38.2226)" stroke="#707071" font-family="'ArialMT'" font-size="15.2272">Window</text>
<rect x="962.3" y="27.3" fill="none" width="59.4" height="16.4"/>
<text transform="matrix(1 0 0 1 962.3488 38.2226)" stroke="#707071" font-family="'ArialMT'" font-size="15.2272">Options</text>
<polyline stroke="#707071" stroke-width="3" stroke-miterlimit="10" points="904.8,46.7 904.8,80.9 904.8,439.9 "/>
<line stroke="#707071" stroke-width="3" stroke-miterlimit="10" x1="1322.9" y1="46.7" x2="1322.9" y2="439.9"/>
<line stroke="#707071" stroke-width="3" stroke-miterlimit="10" x1="1322.9" y1="87.2" x2="904.8" y2="87.2"/>
<rect x="814.2" y="50.3" fill="none" width="92.4" height="71"/>
<text transform="matrix(1 0 0 1 814.196 66.3735)"><tspan x="0" y="0" stroke="#707071" font-family="'ArialMT'" font-size="22.428">Project </tspan><tspan x="0" y="26.9" stroke="#707071" font-family="'ArialMT'" font-size="22.428">Explorer</tspan></text>
<line stroke="#707071" stroke-width="2" stroke-miterlimit="10" x1="821.1" y1="115.2" x2="888.7" y2="115.2"/>
<polyline fill="none" stroke="#707071" stroke-width="2" stroke-miterlimit="10" points="830.8,115.2 830.8,147.5 837,147.5 "/>
<polyline fill="none" stroke="#707071" stroke-width="2" stroke-miterlimit="10" points="830.8,147.5 830.8,163.9 843.6,163.9 "/>
<path fill="none" stroke="#707071" stroke-miterlimit="10" d="M840.5,147.8c1.2-1.7,3-3,4.9-3.7c0.8,1.2,1.1,2.7,0.8,4.1
	c1.1-0.6,2.2-1.2,3.2-1.8c0.3,1.1,0.8,2.2,1.8,2.7c0.4,0.2,0.9,0.2,1.3,0.2c2.5,0.1,5.4,0,6.9-2c0.3,0.5,0.5,1,0.8,1.6
	c1.5-0.5,3.1-0.9,4.6-1.4c0.5-0.1,1-0.3,1.4-0.2c0.6,0.1,1.1,0.5,1.6,0.8c4.8,3.3,11.4,3.7,16.6,1.1"/>
<path fill="none" stroke="#707071" stroke-miterlimit="10" d="M846.9,165.9c-0.5-1-0.8-2.1-0.6-3.2c0.3-1.1,1.4-2,2.5-1.6
	c1.4,0.5,1.4,2.4,2.3,3.6c1,1.3,3.1,1.3,4.6,0.8c1.6-0.5,3-1.5,4.7-1.7c0.1,0.5,0.2,0.9,0.2,1.4c1.8-0.3,3.6-0.6,5.4-0.8
	c0.1,0.6,0.2,1.2,0.3,1.8c1.4-0.8,3-1.1,4.5-0.9c0.6,0.1,1.2,0.2,1.7,0.1c1.2-0.2,2.3-1.5,3.3-0.8c0,0.5,0,0.9,0,1.4
	c2.4-0.1,4.8-0.2,7.2-0.2"/>
<line fill="none" stroke="#707071" stroke-width="2" stroke-miterlimit="10" x1="830.8" y1="131.4" x2="852.8" y2="131.4"/>
<polyline fill="none" stroke="#707071" stroke-width="2" stroke-miterlimit="10" points="838.4,163.9 838.4,181.8 858.2,181.8 "/>
<path fill="none" stroke="#707071" stroke-miterlimit="10" d="M860.4,182.2c1.5-0.7,3.1-1.3,4.6-2c0.2-0.1,0.5-0.2,0.7-0.1
	c0.2,0.1,0.4,0.3,0.3,0.5c2.2-0.2,4.4-0.1,6.6,0.3c0.9,0.2,1.8,0.5,2.4,1.1c0.7,0.6,1,1.6,0.7,2.4c0.7-0.7,1.8-1.1,2.8-1.4
	c0.9-0.3,1.9-0.6,2.8-0.9"/>
<path fill="none" stroke="#707071" stroke-miterlimit="10" d="M857.7,135.6c0-2.9,1-5.7,2.7-8c0.7,0,1.4,0,2,0
	c0.7,2.1,1.4,4.2,2,6.4c2.5-0.2,4.6-2.3,7.2-2.4c1.4-0.1,3.4,0.1,3.6-1.3c0.6-0.1,1.2,0.1,1.7,0.4c0,0.7,0.1,1.3,0.5,1.9
	c2.5-0.4,5.1-0.2,7.3,0.8"/>
<path fill="none" stroke="#707071" stroke-width="2" stroke-miterlimit="10" d="M894.9,261.8c0,4.8-4.8,8.7-10.8,8.7h-52.3
	c-5.9,0-10.8-3.9-10.8-8.7v-29.1c0-4.8,4.8-8.7,10.8-8.7h52.3c5.9,0,10.8,3.9,10.8,8.7V261.8z"/>
<rect x="826.3" y="235.7" fill="none" width="68.2" height="25.6"/>
<text transform="matrix(1 0 0 1 826.3063 250.4478)" stroke="#707071" font-family="'ArialMT'" font-size="20.6338">History</text>
<rect x="917.1" y="56.4" fill="none" width="178.8" height="23.9"/>
<text transform="matrix(1 0 0 1 917.0651 71.1723)" stroke="#707071" font-family="'ArialMT'" font-size="20.6338">Current Changes:</text>
<line stroke="#707071" stroke-width="2" stroke-miterlimit="10" x1="905.1" y1="147.5" x2="1235.2" y2="147.5"/>
<line stroke="#707071" stroke-width="2" stroke-miterlimit="10" x1="905.1" y1="212.1" x2="1235.2" y2="212.1"/>
<line stroke="#707071" stroke-width="2" stroke-miterlimit="10" x1="905.1" y1="276.6" x2="1235.2" y2="276.6"/>
<line stroke="#707071" stroke-width="2" stroke-miterlimit="10" x1="905.1" y1="341.2" x2="1235.2" y2="341.2"/>
<rect x="918.9" y="104.8" fill="none" width="95.1" height="22.8"/>
<text transform="matrix(1 0 0 1 918.8596 119.6171)" stroke="#707071" font-family="'ArialMT'" font-size="20.6338">File name</text>
<path fill="none" stroke="#707071" stroke-miterlimit="10" d="M1017.3,117.6c4.8-3.8,10.4-6.8,16.2-8.7c1.4-0.5,3-0.9,4.4-0.5
	c4.1,1.1,4.2,6.8,3.4,10.9c7.3-0.3,14.6-0.7,22-1c2.4-0.1,4.9-0.2,7.1,0.8c2.2,1,3.9,3.5,3.2,5.8c3.7-7,7.4-14,11.1-20.9
	c1,8.8,2.1,17.6,3.1,26.3c9.5-4.1,13.1-17.4,23.2-19.8c0.5,1.4,0.9,2.7,1.4,4.1c5-1.9,9,4.7,14.1,6.2c1.6,0.5,3.3,0.5,5,0.5
	c8.5-0.1,17.2,0.4,25.4,2.7c1.7,0.5,3.4,1,5.1,1c2.6-0.1,4.9-1.6,7.5-1.9c2.3-0.2,4.5,0.6,6.7,1.1c8.3,1.9,17,0.2,25.4-1.4"/>
<rect x="918.9" y="167.6" fill="none" width="95.1" height="22.8"/>
<text transform="matrix(1 0 0 1 918.8596 182.414)" stroke="#707071" font-family="'ArialMT'" font-size="20.6338">File name</text>
<path fill="none" stroke="#707071" stroke-miterlimit="10" d="M1017.3,180.4c4.8-3.8,10.4-6.8,16.2-8.7c1.4-0.5,3-0.9,4.4-0.5
	c4.1,1.1,4.2,6.8,3.4,10.9c7.3-0.3,14.6-0.7,22-1c2.4-0.1,4.9-0.2,7.1,0.8c2.2,1,3.9,3.5,3.2,5.8c3.7-7,7.4-14,11.1-20.9
	c1,8.8,2.1,17.6,3.1,26.3c9.5-4.1,13.1-17.4,23.2-19.8c0.5,1.4,0.9,2.7,1.4,4.1c5-1.9,9,4.7,14.1,6.2c1.6,0.5,3.3,0.5,5,0.5
	c8.5-0.1,17.2,0.4,25.4,2.7c1.7,0.5,3.4,1,5.1,1c2.6-0.1,4.9-1.6,7.5-1.9c2.3-0.2,4.5,0.6,6.7,1.1c8.3,1.9,17,0.2,25.4-1.4"/>
<rect x="918.9" y="230.4" fill="none" width="95.1" height="22.8"/>
<text transform="matrix(1 0 0 1 918.8596 245.2109)" stroke="#707071" font-family="'ArialMT'" font-size="20.6338">File name</text>
<path fill="none" stroke="#707071" stroke-miterlimit="10" d="M1017.3,243.2c4.8-3.8,10.4-6.8,16.2-8.7c1.4-0.5,3-0.9,4.4-0.5
	c4.1,1.1,4.2,6.8,3.4,10.9c7.3-0.3,14.6-0.7,22-1c2.4-0.1,4.9-0.2,7.1,0.8c2.2,1,3.9,3.5,3.2,5.8c3.7-7,7.4-14,11.1-20.9
	c1,8.8,2.1,17.6,3.1,26.3c9.5-4.1,13.1-17.4,23.2-19.8c0.5,1.4,0.9,2.7,1.4,4.1c5-1.9,9,4.7,14.1,6.2c1.6,0.5,3.3,0.5,5,0.5
	c8.5-0.1,17.2,0.4,25.4,2.7c1.7,0.5,3.4,1,5.1,1c2.6-0.1,4.9-1.6,7.5-1.9c2.3-0.2,4.5,0.6,6.7,1.1c8.3,1.9,17,0.2,25.4-1.4"/>
<rect x="918.9" y="293.2" fill="none" width="95.1" height="22.8"/>
<text transform="matrix(1 0 0 1 918.8596 308.0078)" stroke="#707071" font-family="'ArialMT'" font-size="20.6338">File name</text>
<path fill="none" stroke="#707071" stroke-miterlimit="10" d="M1017.3,306c4.8-3.8,10.4-6.8,16.2-8.7c1.4-0.5,3-0.9,4.4-0.5
	c4.1,1.1,4.2,6.8,3.4,10.9c7.3-0.3,14.6-0.7,22-1c2.4-0.1,4.9-0.2,7.1,0.8c2.2,1,3.9,3.5,3.2,5.8c3.7-7,7.4-14,11.1-20.9
	c1,8.8,2.1,17.6,3.1,26.3c9.5-4.1,13.1-17.4,23.2-19.8c0.5,1.4,0.9,2.7,1.4,4.1c5-1.9,9,4.7,14.1,6.2c1.6,0.5,3.3,0.5,5,0.5
	c8.5-0.1,17.2,0.4,25.4,2.7c1.7,0.5,3.4,1,5.1,1c2.6-0.1,4.9-1.6,7.5-1.9c2.3-0.2,4.5,0.6,6.7,1.1c8.3,1.9,17,0.2,25.4-1.4"/>
<rect x="1236.4" y="90.8" fill="none" width="77.8" height="14.1"/>
<text transform="matrix(1 0 0 1 1236.4407 101.0664)" stroke="#707071" font-family="'ArialMT'" font-size="14.354">Changes</text>
<path fill="none" stroke="#707071" stroke-miterlimit="10" d="M1243.7,110.6c3-0.7,6-3.3,8.8-2.1c0.3,1.5,0.5,2.9,0.8,4.4
	c0.7-0.1,1.2,0.5,1.6,1c2.8,3,8.8,0.3,13,1.9c0.7,0.3,1.3,0.7,2.1,0.8c2.5,0.6,5-1.5,5.3-3.7c0.5,0.1,1.1,0.2,1.6,0.2
	c2.3,1.9,5,3.4,8,4.3c0.5-0.7,0.8-1.6,0.6-2.5c6.9,0.9,14.2,0.1,20.7-2.1"/>
<path fill="none" stroke="#707071" stroke-miterlimit="10" d="M1245.6,125.6c2.5-2.6,6.1-4.6,10-5.4c0,0.5,0.1,1.1,0.1,1.6
	c0.8,0.6,1.6,1.2,2.4,1.8c2.7,1.8,6.1,3,9.5,3.5c0.8,0.1,1.7,0.2,2.5,0c1.4-0.3,2.7-1.3,3-2.5c0.3,0.9,1.2,2.1,2.3,1.7
	c-0.3,1.8,2,3.5,4.1,3c0.4-1.9,1.2-3.8,2.5-5.4c2.1-0.2,4.4-0.4,6.2,0.6c1.3,0.8,2,2.2,3.3,3c1.3,0.8,3.9,0.3,3.7-1
	c4.6,0.4,9.1,0.9,13.7,1.3c0.2-0.5,0.5-1,0.7-1.5"/>
<path fill="none" stroke="#707071" stroke-miterlimit="10" d="M1246.6,139c2.3-0.6,4.7-0.8,7.1-0.6c0,0.5,0,1,0,1.4
	c4.1,0.8,7.2-3.3,11.3-4c1.1-0.2,2.6,0.6,1.9,1.3c1.7-0.4,3.4-0.7,5.1-0.5c1.7,0.2,3.4,1.1,3.9,2.5c10.9-0.8,21.9-1,32.8-0.6"/>
<rect x="1236.4" y="154.4" fill="none" width="77.8" height="14.1"/>
<text transform="matrix(1 0 0 1 1236.4407 164.7143)" stroke="#707071" font-family="'ArialMT'" font-size="14.354">Changes</text>
<path fill="none" stroke="#707071" stroke-miterlimit="10" d="M1243.7,174.2c3-0.7,6-3.3,8.8-2.1c0.3,1.5,0.5,2.9,0.8,4.4
	c0.7-0.1,1.2,0.5,1.6,1c2.8,3,8.8,0.3,13,1.9c0.7,0.3,1.3,0.7,2.1,0.8c2.5,0.6,5-1.5,5.3-3.7c0.5,0.1,1.1,0.2,1.6,0.2
	c2.3,1.9,5,3.4,8,4.3c0.5-0.7,0.8-1.6,0.6-2.5c6.9,0.9,14.2,0.1,20.7-2.1"/>
<path fill="none" stroke="#707071" stroke-miterlimit="10" d="M1245.6,189.3c2.5-2.6,6.1-4.6,10-5.4c0,0.5,0.1,1.1,0.1,1.6
	c0.8,0.6,1.6,1.2,2.4,1.8c2.7,1.8,6.1,3,9.5,3.5c0.8,0.1,1.7,0.2,2.5,0c1.4-0.3,2.7-1.3,3-2.5c0.3,0.9,1.2,2.1,2.3,1.7
	c-0.3,1.8,2,3.5,4.1,3c0.4-1.9,1.2-3.8,2.5-5.4c2.1-0.2,4.4-0.4,6.2,0.6c1.3,0.8,2,2.2,3.3,3c1.3,0.8,3.9,0.3,3.7-1
	c4.6,0.4,9.1,0.9,13.7,1.3c0.2-0.5,0.5-1,0.7-1.5"/>
<path fill="none" stroke="#707071" stroke-miterlimit="10" d="M1246.6,202.7c2.3-0.6,4.7-0.8,7.1-0.6c0,0.5,0,1,0,1.4
	c4.1,0.8,7.2-3.3,11.3-4c1.1-0.2,2.6,0.6,1.9,1.3c1.7-0.4,3.4-0.7,5.1-0.5c1.7,0.2,3.4,1.1,3.9,2.5c10.9-0.8,21.9-1,32.8-0.6"/>
<rect x="1236.4" y="218.1" fill="none" width="77.8" height="14.1"/>
<text transform="matrix(1 0 0 1 1236.4407 228.3623)" stroke="#707071" font-family="'ArialMT'" font-size="14.354">Changes</text>
<path fill="none" stroke="#707071" stroke-miterlimit="10" d="M1243.7,237.9c3-0.7,6-3.3,8.8-2.1c0.3,1.5,0.5,2.9,0.8,4.4
	c0.7-0.1,1.2,0.5,1.6,1c2.8,3,8.8,0.3,13,1.9c0.7,0.3,1.3,0.7,2.1,0.8c2.5,0.6,5-1.5,5.3-3.7c0.5,0.1,1.1,0.2,1.6,0.2
	c2.3,1.9,5,3.4,8,4.3c0.5-0.7,0.8-1.6,0.6-2.5c6.9,0.9,14.2,0.1,20.7-2.1"/>
<path fill="none" stroke="#707071" stroke-miterlimit="10" d="M1245.6,252.9c2.5-2.6,6.1-4.6,10-5.4c0,0.5,0.1,1.1,0.1,1.6
	c0.8,0.6,1.6,1.2,2.4,1.8c2.7,1.8,6.1,3,9.5,3.5c0.8,0.1,1.7,0.2,2.5,0c1.4-0.3,2.7-1.3,3-2.5c0.3,0.9,1.2,2.1,2.3,1.7
	c-0.3,1.8,2,3.5,4.1,3c0.4-1.9,1.2-3.8,2.5-5.4c2.1-0.2,4.4-0.4,6.2,0.6c1.3,0.8,2,2.2,3.3,3c1.3,0.8,3.9,0.3,3.7-1
	c4.6,0.4,9.1,0.9,13.7,1.3c0.2-0.5,0.5-1,0.7-1.5"/>
<path fill="none" stroke="#707071" stroke-miterlimit="10" d="M1246.6,266.3c2.3-0.6,4.7-0.8,7.1-0.6c0,0.5,0,1,0,1.4
	c4.1,0.8,7.2-3.3,11.3-4c1.1-0.2,2.6,0.6,1.9,1.3c1.7-0.4,3.4-0.7,5.1-0.5s3.4,1.1,3.9,2.5c10.9-0.8,21.9-1,32.8-0.6"/>
<rect x="1236.4" y="281.7" fill="none" width="77.8" height="14.1"/>
<text transform="matrix(1 0 0 1 1236.4407 292.0103)" stroke="#707071" font-family="'ArialMT'" font-size="14.354">Changes</text>
<path fill="none" stroke="#707071" stroke-miterlimit="10" d="M1243.7,301.5c3-0.7,6-3.3,8.8-2.1c0.3,1.5,0.5,2.9,0.8,4.4
	c0.7-0.1,1.2,0.5,1.6,1c2.8,3,8.8,0.3,13,1.9c0.7,0.3,1.3,0.7,2.1,0.8c2.5,0.6,5-1.5,5.3-3.7c0.5,0.1,1.1,0.2,1.6,0.2
	c2.3,1.9,5,3.4,8,4.3c0.5-0.7,0.8-1.6,0.6-2.5c6.9,0.9,14.2,0.1,20.7-2.1"/>
<path fill="none" stroke="#707071" stroke-miterlimit="10" d="M1245.6,316.6c2.5-2.6,6.1-4.6,10-5.4c0,0.5,0.1,1.1,0.1,1.6
	c0.8,0.6,1.6,1.2,2.4,1.8c2.7,1.8,6.1,3,9.5,3.5c0.8,0.1,1.7,0.2,2.5,0c1.4-0.3,2.7-1.3,3-2.5c0.3,0.9,1.2,2.1,2.3,1.7
	c-0.3,1.8,2,3.5,4.1,3c0.4-1.9,1.2-3.8,2.5-5.4c2.1-0.2,4.4-0.4,6.2,0.6c1.3,0.8,2,2.2,3.3,3c1.3,0.8,3.9,0.3,3.7-1
	c4.6,0.4,9.1,0.9,13.7,1.3c0.2-0.5,0.5-1,0.7-1.5"/>
<path fill="none" stroke="#707071" stroke-miterlimit="10" d="M1246.6,330c2.3-0.6,4.7-0.8,7.1-0.6c0,0.5,0,1,0,1.4
	c4.1,0.8,7.2-3.3,11.3-4c1.1-0.2,2.6,0.6,1.9,1.3c1.7-0.4,3.4-0.7,5.1-0.5s3.4,1.1,3.9,2.5c10.9-0.8,21.9-1,32.8-0.6"/>
<path fill="none" stroke="#707071" stroke-miterlimit="10" d="M1439.2,130.3c0,5.9-4.8,10.8-10.8,10.8h-86.7
	c-5.9,0-10.8-4.8-10.8-10.8V86.9c0-5.9,4.8-10.8,10.8-10.8h86.7c5.9,0,10.8,4.8,10.8,10.8V130.3z"/>
<rect x="1335.7" y="81.9" fill="none" width="103.5" height="53.3"/>
<text transform="matrix(1 0 0 1 1335.7223 98.6469)"><tspan x="0" y="0" stroke="#707071" font-family="'ArialMT'" font-size="23.3252">Create</tspan><tspan x="0" y="28" stroke="#707071" font-family="'ArialMT'" font-size="23.3252">Snapshot</tspan></text>
<rect x="1334.5" y="151.5" fill="none" width="104.7" height="22.1"/>
<rect x="1334.5" y="151.5" fill="none" stroke="#707071" stroke-miterlimit="10" width="104.7" height="22.1"/>
<text transform="matrix(1 0 0 1 1335.7224 167.2476)" fill="#414042" stroke="#707071" stroke-miterlimit="10" font-family="'ArialMT'" font-size="14.354">Message...</text>
<rect x="1333.3" y="195.8" fill="none" width="104.7" height="135.8"/>
<text transform="matrix(1 0 0 1 1333.3298 206.0297)"><tspan x="0" y="0" stroke="#707071" font-family="'ArialMT'" font-size="14.354">Info:</tspan><tspan x="0" y="17.2" stroke="#707071" font-family="'ArialMT'" font-size="14.354">    •</tspan><tspan x="0" y="34.4" stroke="#707071" font-family="'ArialMT'" font-size="14.354">    •</tspan><tspan x="0" y="51.7" stroke="#707071" font-family="'ArialMT'" font-size="14.354">    •</tspan></text>
<path fill="none" stroke="#707071" stroke-miterlimit="10" d="M1358.3,222.4c4.7-2.3,10.5-2.1,15,0.5c0.3-0.8,0.5-1.6,0.8-2.5
	c2.1-0.5,3.4-2.7,4.9-4.3c1.5-1.6,4.2-2.8,5.8-1.3c0.7,0.7,0.9,1.7,1.5,2.4c0.9,1.1,2.4,1.4,3.7,1.7c5.1,1,10.3,2,15.3,0.8
	c3.1-0.7,5.9-2.3,9.1-2.4c2.5-0.1,4.8,0.7,7.2,1.5c4.8,1.6,9.7,3.3,14.5,4.9"/>
<path fill="none" stroke="#707071" stroke-miterlimit="10" d="M1359,238.5c8.1-1,16.3-1.5,24.5-1.5c7,0,14.1,0.3,21.1,0.6
	c2,0.1,4.1,0.2,6,0.7c2.8,0.7,5.3,2.1,8,3c2.7,0.9,5.8,1.3,8.3-0.1c0.9-0.5,2.7-0.3,2.1,0.5"/>
<path fill="none" stroke="#707071" stroke-miterlimit="10" d="M1363.1,258.5c2.3-2.1,4.5-4.2,6.8-6.4c0.6,0,1.1-0.1,1.7-0.1
	c1,3.3,1.6,6.7,1.9,10.1c2.1,0.8,4.3-1.2,5.4-3.2c1-2,1.7-4.4,3.6-5.7c1.4,1.7,2.2,3.7,2.4,5.9c4.7-2.2,9.9-3.5,15.1-3.6
	c0.9,0,2.2,0.9,1.5,1.4c8.6-0.6,17.3,0.3,25.6,2.8"/>
<g>
	<line fill="none" stroke="#000000" stroke-width="3" stroke-miterlimit="10" x1="660.8" y1="206.8" x2="776.3" y2="206.8"/>
	<line fill="none" stroke="#000000" stroke-width="3" stroke-miterlimit="10" x1="776.3" y1="206.8" x2="750.8" y2="181.4"/>
	<line fill="none" stroke="#000000" stroke-width="3" stroke-miterlimit="10" x1="776.3" y1="206.8" x2="754.2" y2="229"/>
</g>
<path fill="none" stroke="#000000" stroke-width="3" stroke-miterlimit="10" d="M651.2,970.4c0,3.6-2.9,6.5-6.5,6.5H18.8
	c-3.6,0-6.5-2.9-6.5-6.5V565.2c0-3.6,2.9-6.5,6.5-6.5h625.9c3.6,0,6.5,2.9,6.5,6.5V970.4z"/>
<line fill="#FFFFFF" stroke="#000000" stroke-width="3" stroke-miterlimit="10" x1="12.2" y1="583.7" x2="651.2" y2="583.7"/>
<rect x="20.9" y="564.3" fill="none" width="31.9" height="16.4"/>
<text transform="matrix(1 0 0 1 20.9289 575.2018)" font-family="'ArialMT'" font-size="15.2272">File</text>
<rect x="71.7" y="564.3" fill="none" width="62.1" height="16.4"/>
<text transform="matrix(1 0 0 1 71.7429 575.2018)" font-family="'ArialMT'" font-size="15.2272">Window</text>
<rect x="162.2" y="564.3" fill="none" width="59.4" height="16.4"/>
<text transform="matrix(1 0 0 1 162.175 575.2018)" font-family="'ArialMT'" font-size="15.2272">Options</text>
<g>
	<line fill="none" stroke="#000000" stroke-width="3" stroke-miterlimit="10" x1="660.8" y1="814" x2="776.3" y2="814"/>
	<line fill="none" stroke="#000000" stroke-width="3" stroke-miterlimit="10" x1="776.3" y1="814" x2="750.8" y2="788.6"/>
	<line fill="none" stroke="#000000" stroke-width="3" stroke-miterlimit="10" x1="776.3" y1="814" x2="754.2" y2="836.2"/>
</g>
<g>
	<line fill="none" stroke="#000000" stroke-width="3" stroke-miterlimit="10" x1="268" y1="454.3" x2="268" y2="531.3"/>
	<line fill="none" stroke="#000000" stroke-width="3" stroke-miterlimit="10" x1="268" y1="531.3" x2="293.5" y2="514.3"/>
	<line fill="none" stroke="#000000" stroke-width="3" stroke-miterlimit="10" x1="268" y1="531.3" x2="245.9" y2="516.6"/>
</g>
<path fill="#F7F7F7" stroke="#000000" stroke-width="6" stroke-miterlimit="10" d="M1322.9,275.2c0,6.6-5.4,12-12,12H966.8
	c-6.6,0-12-5.4-12-12V154.3c0-6.6,5.4-12,12-12h344.1c6.6,0,12,5.4,12,12V275.2z"/>
<line fill="none" stroke="#000000" stroke-width="4" stroke-miterlimit="10" x1="954.8" y1="163.9" x2="1322.9" y2="163.9"/>
<rect x="1045.8" y="171.8" fill="none" width="214.4" height="47.9"/>
<text transform="matrix(1 0 0 1 1045.819 183.2362)"><tspan x="0" y="0" font-family="'ArialMT'" font-size="16">Please Enter a Description </tspan><tspan x="0" y="19.2" font-family="'ArialMT'" font-size="16">for this Revision</tspan></text>
<rect x="983.7" y="214.8" fill="none" stroke="#000000" stroke-width="2" stroke-miterlimit="10" width="316.5" height="24.8"/>
<path fill="none" stroke="#000000" stroke-width="2" stroke-miterlimit="10" d="M1109.4,258.9c0,6.4-4.7,11.6-10.4,11.6h-82
	c-5.8,0-10.4-5.2-10.4-11.6l0,0c0-6.4,4.7-11.6,10.4-11.6h82C1104.7,247.3,1109.4,252.5,1109.4,258.9L1109.4,258.9z"/>
<path fill="none" stroke="#000000" stroke-width="2" stroke-miterlimit="10" d="M1264.2,258.9c0,6.4-4.7,11.6-10.5,11.6h-82.6
	c-5.8,0-10.5-5.2-10.5-11.6l0,0c0-6.4,4.7-11.6,10.5-11.6h82.6C1259.5,247.3,1264.2,252.5,1264.2,258.9L1264.2,258.9z"/>
<rect x="1042.4" y="251.5" fill="none" width="31" height="15.5"/>
<text transform="matrix(1 0 0 1 1042.4371 262.9754)" font-family="'ArialMT'" font-size="16">OK</text>
<rect x="1186.2" y="252.6" fill="none" width="57.5" height="17.3"/>
<text transform="matrix(1 0 0 1 1186.1824 264.0595)" font-family="'ArialMT'" font-size="16">Cancel</text>
<rect x="671.3" y="136.6" fill="none" width="120" height="60"/>
<text transform="matrix(1 0 0 1 671.3142 147.3296)"><tspan x="0" y="0" font-family="'ArialMT'" font-size="15">Create Snapshot </tspan><tspan x="0" y="18" font-family="'ArialMT'" font-size="15">w/o message</tspan></text>
<g>
	<line fill="none" stroke="#000000" stroke-width="3" stroke-miterlimit="10" x1="789.8" y1="457.3" x2="542.8" y2="520.6"/>
	<line fill="none" stroke="#000000" stroke-width="3" stroke-miterlimit="10" x1="542.8" y1="520.6" x2="603.6" y2="531.3"/>
	<line fill="none" stroke="#000000" stroke-width="3" stroke-miterlimit="10" x1="542.8" y1="520.6" x2="584.6" y2="487.1"/>
</g>
<line fill="none" stroke="#000000" stroke-width="3" stroke-miterlimit="10" x1="12.2" y1="625.5" x2="651.2" y2="625.5"/>
<line fill="#FFFFFF" stroke="#000000" stroke-width="3" stroke-miterlimit="10" x1="506" y1="625.5" x2="506" y2="976.9"/>
<path fill="#FFFFFF" stroke="#000000" stroke-width="3" stroke-miterlimit="10" d="M637.8,679.1c0,5.7-5.4,10.4-12,10.4H526
	c-6.6,0-12-4.6-12-10.4v-30.3c0-5.7,5.4-10.4,12-10.4h99.8c6.6,0,12,4.6,12,10.4V679.1z"/>
<rect x="535.6" y="646.5" fill="none" width="75.2" height="43"/>
<text transform="matrix(1 0 0 1 535.6105 659.2651)"><tspan x="0" y="0" font-family="'MyriadPro-Regular'" font-size="18">Back to </tspan><tspan x="0" y="21.6" font-family="'MyriadPro-Regular'" font-size="18">changes</tspan></text>
<rect x="522.7" y="711.8" fill="none" width="107.3" height="56"/>
<text transform="matrix(1 0 0 1 522.6895 726.7023)"><tspan x="0" y="0" font-family="'MyriadPro-Regular'" font-size="21">Info About </tspan><tspan x="0" y="25.2" font-family="'MyriadPro-Regular'" font-size="21">Revision</tspan></text>
<path fill="none" stroke="#000000" stroke-miterlimit="10" d="M523.3,782.6c1.8-3.6,3.7-7.3,6.7-10c3-2.7,7.4-4.2,11.2-2.9
	c4.3,7.9,12.3,13.8,21.1,15.6c3.2,0.7,7.5,2,7.1,5.2c3,0.5,5.4-2.2,7.9-3.9c2.5-1.7,7-1.7,7.4,1.3c10.5-3.1,21.6-4.2,32.6-3.3"/>
<path fill="none" stroke="#000000" stroke-miterlimit="10" d="M525.6,810.6c-1-5.3-0.2-10.9,2.3-15.6c2-2.2,5.9-0.5,7.6,2
	c1.7,2.5,2.3,5.7,4.5,7.8c4.2,4.2,11.3,1.9,17.1,3.1c3.5,0.7,6.5,2.6,9.9,3.6c3.4,1,7.5,1,9.8-1.7c0.2-0.3,0.5-0.6,0.5-0.9
	c11.5,0.9,23.1,1.9,34.6,2.8c1.8,0.1,3.7,0.3,5.4-0.3c3.1-1,6-4,8.9-2.8"/>
<path fill="none" stroke="#000000" stroke-miterlimit="10" d="M525,834.2c7.5-9.1,20.1-13.5,31.6-11c-1.2,1.4-0.8,3.8,0.5,5.2
	s3.2,2.1,5,2.6c6.5,2,13.3,3.1,20.1,3.3c3.9,0.1,7.9-0.1,11.5,1.1c3,1,5.7,3,8.8,3.6c6.2,1.3,12.7-3,18.8-1.4"/>
<polyline fill="none" stroke="#000000" stroke-miterlimit="10" points="12.2,655.5 109.2,655.5 118.7,632.5 232.8,632.5 
	240.6,655.5 506,655.5 "/>
<polyline fill="none" stroke="#000000" stroke-miterlimit="10" points="12.2,701 109.2,701 118.7,678 232.8,678 240.6,701 506,701 
	"/>
<polyline fill="none" stroke="#000000" stroke-miterlimit="10" points="12.2,746.5 239.2,746.5 248.7,723.5 362.8,723.5 
	370.6,746.5 506,746.5 "/>
<polyline fill="none" stroke="#000000" stroke-miterlimit="10" points="12.2,791.4 239.2,791.4 248.7,768.4 362.8,768.4 
	370.6,791.4 506,791.4 "/>
<polyline fill="none" stroke="#000000" stroke-miterlimit="10" points="12.2,837.5 109.2,837.5 118.7,814.5 232.8,814.5 
	240.6,837.5 506,837.5 "/>
<polyline fill="none" stroke="#000000" stroke-miterlimit="10" points="12.2,883 109.2,883 118.7,860 232.8,860 240.6,883 506,883 
	"/>
<polyline fill="none" stroke="#000000" stroke-miterlimit="10" points="12.2,928.5 109.2,928.5 118.7,905.5 232.8,905.5 
	240.6,928.5 506,928.5 "/>
<path fill="none" stroke="#707071" d="M116.2,649.5c3.2,1.1,6.3-1.7,8.7-4c2.4-2.4,6.3-4.6,8.9-2.5c2,2,4.3,3.6,6.7,5
	c5.1,0,9.1,4.5,14.1,5.7c1.7,0.4,3.4,0.4,5.1,0.4c13.3-0.1,26.7-0.3,40-0.4c4.3,0,8.8-0.2,12.4-2.5c1.5-1,2.8-2.4,4.3-3.3
	c3.4-2,7.7-1.6,11.6-1"/>
<path fill="none" stroke="#707071" d="M125.2,698.3c-0.4,0.7-1.6,0.3-1.8-0.5c-0.2-0.7,0.1-1.5,0.4-2.2c1.7-3.6,3.5-7.3,6.3-10.2
	c2.8-2.9,6.9-4.8,10.9-4c1.1,4.4,5.6,6.8,9.7,8.8c4.4,2.1,8.8,4.2,13.2,6.3c10.6-0.7,21.1-1.5,31.7-2.2c1.5-0.1,3.7,1.1,2.7,2.2
	c7.7,0,15.3,0,23,0"/>
<path fill="none" stroke="#707071" d="M244.6,743.8c4.3-4.4,10.5-6.8,16.6-6.4c0,1.1,0,2.2,0.1,3.3c6-0.7,12.4-1.3,17.7,1.5
	c1.4,0.8,2.7,1.7,4.2,2.4c2.1,0.9,4.5,0.9,6.8,0.9c9.7-0.3,19.4-2.4,28.4-6.3c13.1-0.1,26.3,2.5,38.4,7.5"/>
<path fill="none" stroke="#707071" d="M248.2,790.5c0-1,0-2.1,0-3.1c4.2-1,8.6-1.3,12.9-0.7c1.7,2.2,2.5,5.1,2.2,7.8
	c5.6,0,11.3,0,16.9-0.1c1.6,0,3.8,1,3.1,2.4c7.9,0,15.8-0.1,23.7-0.1c2.4,0,4.7,0,7.1-0.1c7.2-0.1,14.4-0.6,21.6-1.4
	c6.2-4.6,13.8-7.4,21.5-7.9"/>
<path fill="none" stroke="#707071" d="M118.9,885.4c0.7-3.4,1.9-6.8,3.5-9.9c0.9,0,1.9,0,2.8,0c4,4.5,7.2,9.7,9.3,15.3
	c7,0.4,11.9-6.6,15.3-12.8c3.7,3.1,8.8,4.3,13.5,3.2c0.4-1.9,0.8-3.9,1.2-5.8c20,0.1,39.9,1.3,59.7,3.5"/>
<path fill="none" stroke="#707071" d="M122.9,925c4.8-6.7,14.5-9.4,22.1-6c1.4,0.6,2.6,1.4,4.1,1.9c1.3,0.4,2.7,0.6,3.8,1.3
	c0.8,0.5,1.4,1.2,2,1.9c4.4,4.4,11.4,6,17.2,3.9c0.4-1.6,0.9-3.3,1.3-4.9c4-0.3,8,0.9,11.3,3.1c-0.4-1.9,2-3.2,3.9-3.7
	c0.8,3.8,4.8,6.6,8.6,6c-0.5-1.7,1.3-3.5,2.9-3.1c-0.5-2,2.3-4,4-2.7c-0.9,1.6,1.7,2.8,3.6,2.8c4.1,0,8.3-0.1,12.4-0.1"/>
<path fill="none" stroke="#707071" d="M119.2,837.5c0.9-3.3,1.6-6.7,2.2-10c0.9,0.8,2.1-0.9,1.9-2.1c1,1.4,1.3,3.2,1,4.9
	c8.1-0.9,16.3,0.1,23.9,3c1.9-1.7,3.9-3.4,5.8-5.2c4.9,2.5,11.3,1.5,15.2-2.4c2.6,0.3,5.9,1.2,6.3,3.8c2.1,0.2,2.8-2.8,2.7-4.9
	c3.8-1.7,6.5,4.6,10.6,5.3c1,0.2,2,0,3.1-0.2c7.7-1.3,15.7-1.1,23.3,0.8"/>
<path fill="none" stroke="#000000" stroke-width="3" stroke-miterlimit="10" d="M1458.3,969.4c0,3.6-2.9,6.5-6.5,6.5H825.9
	c-3.6,0-6.5-2.9-6.5-6.5V564.2c0-3.6,2.9-6.5,6.5-6.5h625.9c3.6,0,6.5,2.9,6.5,6.5V969.4z"/>
<line fill="#FFFFFF" stroke="#000000" stroke-width="3" stroke-miterlimit="10" x1="819.3" y1="582.7" x2="1458.3" y2="582.7"/>
<rect x="828" y="563.3" fill="none" width="31.9" height="16.4"/>
<text transform="matrix(1 0 0 1 828.0333 574.2018)" font-family="'ArialMT'" font-size="15.2272">File</text>
<rect x="878.8" y="563.3" fill="none" width="62.1" height="16.4"/>
<text transform="matrix(1 0 0 1 878.8472 574.2018)" font-family="'ArialMT'" font-size="15.2272">Window</text>
<rect x="969.3" y="563.3" fill="none" width="59.4" height="16.4"/>
<text transform="matrix(1 0 0 1 969.2794 574.2018)" font-family="'ArialMT'" font-size="15.2272">Options</text>
<line fill="none" stroke="#000000" stroke-width="3" stroke-miterlimit="10" x1="819.3" y1="624.5" x2="1458.3" y2="624.5"/>
<line fill="#FFFFFF" stroke="#000000" stroke-width="3" stroke-miterlimit="10" x1="1313.1" y1="624.5" x2="1313.1" y2="975.9"/>
<path fill="#FFFFFF" stroke="#000000" stroke-width="3" stroke-miterlimit="10" d="M1444.9,678.1c0,5.7-5.4,10.4-12,10.4h-99.8
	c-6.6,0-12-4.6-12-10.4v-30.3c0-5.7,5.4-10.4,12-10.4h99.8c6.6,0,12,4.6,12,10.4V678.1z"/>
<rect x="1342.7" y="645.5" fill="none" width="75.2" height="43"/>
<text transform="matrix(1 0 0 1 1342.7148 658.2651)"><tspan x="0" y="0" font-family="'MyriadPro-Regular'" font-size="18">Back to </tspan><tspan x="0" y="21.6" font-family="'MyriadPro-Regular'" font-size="18">changes</tspan></text>
<rect x="1329.8" y="710.8" fill="none" width="107.3" height="56"/>
<text transform="matrix(1 0 0 1 1329.7938 725.7023)"><tspan x="0" y="0" font-family="'MyriadPro-Regular'" font-size="21">Info About </tspan><tspan x="0" y="25.2" font-family="'MyriadPro-Regular'" font-size="21">Revision</tspan></text>
<path fill="none" stroke="#000000" stroke-miterlimit="10" d="M1330.4,781.6c1.8-3.6,3.7-7.3,6.7-10c3-2.7,7.4-4.2,11.2-2.9
	c4.3,7.9,12.3,13.8,21.1,15.6c3.2,0.7,7.5,2,7.1,5.2c3,0.5,5.4-2.2,7.9-3.9c2.5-1.7,7-1.7,7.4,1.3c10.5-3.1,21.6-4.2,32.6-3.3"/>
<path fill="none" stroke="#000000" stroke-miterlimit="10" d="M1332.7,809.6c-1-5.3-0.2-10.9,2.3-15.6c2-2.2,5.9-0.5,7.6,2
	c1.7,2.5,2.3,5.7,4.5,7.8c4.2,4.2,11.3,1.9,17.1,3.1c3.5,0.7,6.5,2.6,9.9,3.6c3.4,1,7.5,1,9.8-1.7c0.2-0.3,0.5-0.6,0.5-0.9
	c11.5,0.9,23.1,1.9,34.6,2.8c1.8,0.1,3.7,0.3,5.4-0.3c3.1-1,6-4,8.9-2.8"/>
<path fill="none" stroke="#000000" stroke-miterlimit="10" d="M1332.1,833.2c7.5-9.1,20.1-13.5,31.6-11c-1.2,1.4-0.8,3.8,0.5,5.2
	c1.3,1.4,3.2,2.1,5,2.6c6.5,2,13.3,3.1,20.1,3.3c3.9,0.1,7.9-0.1,11.5,1.1c3,1,5.7,3,8.8,3.6c6.2,1.3,12.7-3,18.8-1.4"/>
<polyline fill="none" stroke="#000000" stroke-miterlimit="10" points="819.3,652.5 916.3,652.5 925.8,629.5 1039.9,629.5 
	1047.7,652.5 1313.1,652.5 "/>
<polyline fill="none" stroke="#000000" stroke-miterlimit="10" points="819.3,687 916.3,687 925.8,664 1039.9,664 1047.7,687 
	1313.1,687 "/>
<polyline fill="none" stroke="#000000" stroke-miterlimit="10" points="819.3,819.5 1046.3,819.5 1055.8,796.5 1169.9,796.5 
	1177.7,819.5 1313.1,819.5 "/>
<polyline fill="none" stroke="#000000" stroke-miterlimit="10" points="819.3,864.4 1046.3,864.4 1055.8,841.4 1169.9,841.4 
	1177.7,864.4 1313.1,864.4 "/>
<polyline fill="none" stroke="#000000" stroke-miterlimit="10" points="819.3,910.5 916.3,910.5 925.8,887.5 1039.9,887.5 
	1047.7,910.5 1313.1,910.5 "/>
<polyline fill="none" stroke="#000000" stroke-miterlimit="10" points="819.3,956 916.3,956 925.8,933 1039.9,933 1047.7,956 
	1313.1,956 "/>
<path fill="none" stroke="#707071" d="M923.3,648.5c3.2,1.1,6.3-1.7,8.7-4c2.4-2.4,6.3-4.6,8.9-2.5c2,2,4.3,3.6,6.7,5
	c5.1,0,9.1,4.5,14.1,5.7c1.7,0.4,3.4,0.4,5.1,0.4c13.3-0.1,26.7-0.3,40-0.4c4.3,0,8.8-0.2,12.4-2.5c1.5-1,2.8-2.4,4.3-3.3
	c3.4-2,7.7-1.6,11.6-1"/>
<path fill="none" stroke="#707071" d="M932.3,686.3c-0.4,0.7-1.6,0.3-1.8-0.5s0.1-1.5,0.4-2.2c1.7-3.6,3.5-7.3,6.3-10.2
	c2.8-2.9,6.9-4.8,10.9-4c1.1,4.4,5.6,6.8,9.7,8.8c4.4,2.1,8.8,4.2,13.2,6.3c10.6-0.7,21.1-1.5,31.7-2.2c1.5-0.1,3.7,1.1,2.7,2.2
	c7.7,0,15.3,0,23,0"/>
<path fill="none" stroke="#707071" d="M1051.7,816.8c4.3-4.4,10.5-6.8,16.6-6.4c0,1.1,0,2.2,0.1,3.3c6-0.7,12.4-1.3,17.7,1.5
	c1.4,0.8,2.7,1.7,4.2,2.4c2.1,0.9,4.5,0.9,6.8,0.9c9.7-0.3,19.4-2.4,28.4-6.3c13.1-0.1,26.3,2.5,38.4,7.5"/>
<path fill="none" stroke="#707071" d="M1055.3,863.5c0-1,0-2.1,0-3.1c4.2-1,8.6-1.3,12.9-0.7c1.7,2.2,2.5,5.1,2.2,7.8
	c5.6,0,11.3,0,16.9-0.1c1.6,0,3.8,1,3.1,2.4c7.9,0,15.8-0.1,23.7-0.1c2.4,0,4.7,0,7.1-0.1c7.2-0.1,14.4-0.6,21.6-1.4
	c6.2-4.6,13.8-7.4,21.5-7.9"/>
<path fill="none" stroke="#707071" d="M926,958.4c0.7-3.4,1.9-6.8,3.5-9.9c0.9,0,1.9,0,2.8,0c4,4.5,7.2,9.7,9.3,15.3
	c7,0.4,11.9-6.6,15.3-12.8c3.7,3.1,8.8,4.3,13.5,3.2c0.4-1.9,0.8-3.9,1.2-5.8c20,0.1,39.9,1.3,59.7,3.5"/>
<path fill="none" stroke="#707071" d="M926.4,910.5c0.9-3.3,1.6-6.7,2.2-10c0.9,0.8,2.1-0.9,1.9-2.1c1,1.4,1.3,3.2,1,4.9
	c8.1-0.9,16.3,0.1,23.9,3c1.9-1.7,3.9-3.4,5.8-5.2c4.9,2.5,11.3,1.5,15.2-2.4c2.6,0.3,5.9,1.2,6.3,3.8c2.1,0.2,2.8-2.8,2.7-4.9
	c3.8-1.7,6.5,4.6,10.6,5.3c1,0.2,2,0,3.1-0.2c7.7-1.3,15.7-1.1,23.3,0.8"/>
<path fill="none" stroke="#000000" stroke-width="3" stroke-miterlimit="10" d="M678.2,367.5l2-36c157.5,202-13.9,331.5-13.9,331.5"
	/>
<line fill="none" stroke="#000000" stroke-width="3" stroke-miterlimit="10" x1="714.2" y1="340.2" x2="679.2" y2="328.5"/>
<rect x="678.3" y="653.5" fill="none" width="113" height="40"/>
<text transform="matrix(1 0 0 1 678.2732 666.9751)"><tspan x="0" y="0" font-family="'MyriadPro-Regular'" font-size="19">Click Back</tspan><tspan x="0" y="22.8" font-family="'MyriadPro-Regular'" font-size="19">to Changes</tspan></text>
<rect x="591.8" y="466.7" transform="matrix(0.9667 -0.2558 0.2558 0.9667 -100.5763 182.5167)" fill="none" width="118.8" height="22.3"/>
<text transform="matrix(0.9667 -0.2558 0.2558 0.9667 594.4033 495.2693)" font-family="'MyriadPro-Regular'" font-size="19">Enter Message</text>
<rect x="286.2" y="470.5" fill="none" width="129" height="35"/>
<text transform="matrix(1 0 0 1 286.2273 482.5552)"><tspan x="0" y="0" font-family="'MyriadPro-Regular'" font-size="17">Create Snapshot </tspan><tspan x="0" y="20.4" font-family="'MyriadPro-Regular'" font-size="17">w/ Message</tspan></text>
<rect x="666.3" y="768.7" fill="none" width="119" height="39.7"/>
<text transform="matrix(1 0 0 1 666.2914 780.7653)"><tspan x="0" y="0" font-family="'MyriadPro-Regular'" font-size="17">Select snapshot</tspan><tspan x="0" y="20.4" font-family="'MyriadPro-Regular'" font-size="17">in History</tspan></text>
<path fill="none" stroke="#000000" stroke-miterlimit="10" d="M872.6,750.6c2.6-9.1,8-17.3,15.2-23.4c1.8,4.7,3.6,9.4,5.4,14.1
	c6.2,2.5,9.8-6.9,14.4-11.7c3.8-3.9,10.1-5.1,15.1-2.7s8,8,7.3,13.4c2.5-3.6,3.8-7.9,6.2-11.6c2.4-3.7,6.4-6.9,10.8-6.5
	c4.4,0.5,7.7,6.3,4.7,9.5c2.1-3.6,7.5-3,11.1-1c3.6,2,7,5.1,11.1,5.1c2.8,0,5.5-1.5,8.3-1.7c2.8-0.3,6.3,1.7,5.8,4.5
	c6.9-2.2,14.5-2,21.2,0.7c2,0.8,4,1.8,6.2,1.9c2.5,0.1,4.8-1,7.1-1.8c11.7-4.2,24.6-2.1,36.9,0c17.7,3,35.4,6.1,53,9.1"/>
<path fill="none" stroke="#000000" stroke-miterlimit="10" d="M867.2,773.4c4.3-2.9,8.2-6.5,11.4-10.6c5-3,8,8.2,13.8,8.6
	c3.4,0.3,5.6-3.2,8.1-5.5c6.4-6.1,18.2-4.8,23.1,2.6c6.1,0.1,6.1-9.6,10.7-13.5c3.8-3.2,9.6-1.5,13.9,1c4.3,2.5,8.5,5.9,13.4,5.7
	c4-0.1,8.1-2.6,11.7-0.9c4.5,2,6.4,9.6,11.3,8.8c1.7-0.3,3-1.6,4.4-2.6c6.8-5.2,16.4-4.2,24.9-2.9c1.1,6.1,8.6,8.4,14.7,9.2
	c25,3.4,50.4,4.4,75.6,3.1"/>
<path fill="none" stroke="#000000" stroke-miterlimit="10" d="M872.7,802c5.8-2.3,11.5-4.7,17.3-7c1.3-0.5,2.7-1.1,4.1-0.6
	c1.3,0.4,2.2,2.3,1.2,3.3c7.4,0.8,14.4-2.9,21.5-5.1c7.1-2.2,16.2-2.3,20.6,3.7c1.3,1.8,2.1,4,3.6,5.6c3.2,3.5,8.7,3.7,13.3,2.5
	s8.9-3.6,13.6-4.3c4.7-0.7,10.3,1,12,5.4c3.8-1.3,7.6-2.6,11.5-3.8c5.9-1.9,11.8-3.8,17.7-5.7"/>
<path fill="none" stroke="#000000" stroke-miterlimit="10" d="M881.8,713c7.3-5.4,15.5-9.6,24.2-12.2c1.5,2.3,2.3,5.1,2.3,7.9
	c1.6-0.7,3.2-1.4,4.8-2c2.2,2,4.3,4,6.5,6c0.4-4.1,5.5-5.8,9.6-5.3c4.1,0.5,8,2.3,12.1,1.6c1.5,2.4,4.1,4.2,7,4.6
	c-0.1-3-0.1-5.9-0.2-8.9c2.7,3.1,5.4,6.2,8.1,9.3c2-2.8,3-6.3,2.8-9.8c1.9,3.1,4,6.5,7.4,7.9s8.3-0.5,8.4-4.1c4.2-2.2,8.9,6,13,3.7
	c1.2-0.7,1.8-2,2.7-3.1c3.5-4.6,12.2-3.1,14,2.4c1.9-6,6.1-13.5,12.2-11.9c4.8,1.3,6.4,7.4,10.7,9.9c4.1,2.4,9.2,0.8,13.9-0.2
	c15.6-3.3,31.8,1.2,47.1,5.6c-1.1-6.2,8-9.4,13.6-6.6c5.6,2.8,9.1,8.6,14.3,12.1c-2.7-5,2.8-11.1,8.4-11.4
	c5.6-0.3,10.7,3.1,15.3,6.4"/>
<rect x="11.2" y="447.5" fill="none" width="105" height="19"/>
<text transform="matrix(1 0 0 1 11.2273 459.5552)" font-family="'MyriadPro-Regular'" font-size="17">Starting View</text>
<rect x="814.7" y="452" fill="none" width="244.7" height="19"/>
<text transform="matrix(1 0 0 1 814.7047 464.0552)" font-family="'MyriadPro-Regular'" font-size="17">Dialog for entering description</text>
<rect x="12" y="982" fill="none" width="160.3" height="19"/>
<text transform="matrix(1 0 0 1 11.9955 994.0703)" font-family="'MyriadPro-Regular'" font-size="17">History view</text>
<rect x="820.8" y="981" fill="none" width="230.6" height="19"/>
<text transform="matrix(1 0 0 1 820.7847 993.0703)" font-family="'MyriadPro-Regular'" font-size="17">History view with item selected</text>
</svg>
