<?xml version="1.0" encoding="utf-8"?>
<!-- Generator: Adobe Illustrator 17.1.0, SVG Export Plug-In . SVG Version: 6.00 Build 0)  -->
<!DOCTYPE svg PUBLIC "-//W3C//DTD SVG 1.1//EN" "http://www.w3.org/Graphics/SVG/1.1/DTD/svg11.dtd">
<svg version="1.1" id="Layer_1" xmlns="http://www.w3.org/2000/svg" xmlns:xlink="http://www.w3.org/1999/xlink" x="0px" y="0px"
	 viewBox="0 0 800 482" enable-background="new 0 0 800 482" xml:space="preserve">
<path fill="none" stroke="#000000" stroke-width="3" stroke-miterlimit="10" d="M743.5,458.9c0,3.9-3.2,7.1-7.1,7.1H54.1
	c-3.9,0-7.1-3.2-7.1-7.1V17.3c0-3.9,3.2-7.1,7.1-7.1h682.3c3.9,0,7.1,3.2,7.1,7.1V458.9z"/>
<line fill="#FFFFFF" stroke="#000000" stroke-width="3" stroke-miterlimit="10" x1="47" y1="37.4" x2="743.5" y2="37.4"/>
<rect x="56.5" y="16.3" fill="none" width="34.7" height="17.8"/>
<text transform="matrix(1 0 0 1 56.4927 28.1743)" font-family="'ArialMT'" font-size="16.597">File</text>
<rect x="111.9" y="16.3" fill="none" width="67.7" height="17.8"/>
<text transform="matrix(1 0 0 1 111.8775 28.1743)" font-family="'ArialMT'" font-size="16.597">Window</text>
<rect x="210.4" y="16.3" fill="none" width="64.8" height="17.8"/>
<text transform="matrix(1 0 0 1 210.4439 28.1743)" font-family="'ArialMT'" font-size="16.597">Options</text>
<line fill="none" stroke="#000000" stroke-width="3" stroke-miterlimit="10" x1="47" y1="83" x2="743.5" y2="83"/>
<line fill="#FFFFFF" stroke="#000000" stroke-width="3" stroke-miterlimit="10" x1="585.2" y1="83" x2="585.2" y2="466"/>
<path fill="#FFFFFF" stroke="#000000" stroke-width="3" stroke-miterlimit="10" d="M728.9,141.4c0,6.2-5.9,11.3-13.1,11.3H607
	c-7.2,0-13.1-5.1-13.1-11.3v-33c0-6.2,5.9-11.3,13.1-11.3h108.8c7.2,0,13.1,5.1,13.1,11.3V141.4z"/>
<rect x="617.5" y="105.9" fill="none" width="81.9" height="46.9"/>
<text transform="matrix(1 0 0 1 617.4707 119.7989)"><tspan x="0" y="0" font-family="'MyriadPro-Regular'" font-size="19.6191">Back to </tspan><tspan x="0" y="23.5" font-family="'MyriadPro-Regular'" font-size="19.6191">changes</tspan></text>
<rect x="603.4" y="177.1" fill="none" width="116.9" height="61"/>
<text transform="matrix(1 0 0 1 603.3877 193.3018)"><tspan x="0" y="0" font-family="'MyriadPro-Regular'" font-size="22.889">Info About </tspan><tspan x="0" y="27.5" font-family="'MyriadPro-Regular'" font-size="22.889">Revision</tspan></text>
<path fill="none" stroke="#000000" stroke-miterlimit="10" d="M604,254.2c1.9-4,4-7.9,7.3-10.9c3.3-2.9,8-4.6,12.2-3.2
	c4.7,8.6,13.4,15,23,17c3.5,0.7,8.2,2.2,7.7,5.7c3.2,0.5,5.9-2.4,8.6-4.3s7.7-1.8,8,1.4c11.5-3.4,23.6-4.6,35.5-3.6"/>
<path fill="none" stroke="#000000" stroke-miterlimit="10" d="M606.5,284.8c-1.1-5.7-0.2-11.9,2.5-17.1c2.2-2.4,6.4-0.6,8.2,2.2
	s2.5,6.2,4.9,8.5c4.6,4.5,12.3,2.1,18.6,3.3c3.8,0.7,7.1,2.8,10.8,3.9c3.7,1.1,8.2,1.1,10.7-1.8c0.3-0.3,0.5-0.6,0.6-1
	c12.6,1,25.1,2,37.7,3c2,0.2,4,0.3,5.9-0.3c3.3-1.1,6.5-4.4,9.7-3.1"/>
<path fill="none" stroke="#000000" stroke-miterlimit="10" d="M605.9,310.5c8.1-9.9,22-14.7,34.5-12c-1.3,1.6-0.9,4.1,0.5,5.7
	c1.4,1.5,3.4,2.3,5.4,2.9c7.1,2.2,14.5,3.4,21.9,3.6c4.2,0.1,8.6-0.1,12.6,1.2c3.3,1.1,6.2,3.2,9.6,3.9c6.8,1.4,13.8-3.3,20.5-1.5"
	/>
<polyline fill="none" stroke="#000000" stroke-miterlimit="10" points="47,115.7 152.7,115.7 163,90.6 287.4,90.6 295.9,115.7 
	585.2,115.7 "/>
<polyline fill="none" stroke="#000000" stroke-miterlimit="10" points="47,165.3 152.7,165.3 163,140.2 287.4,140.2 295.9,165.3 
	585.2,165.3 "/>
<polyline fill="none" stroke="#000000" stroke-miterlimit="10" points="47,214.9 294.4,214.9 304.7,189.8 429.1,189.8 437.6,214.9 
	585.2,214.9 "/>
<polyline fill="none" stroke="#000000" stroke-miterlimit="10" points="47,263.8 294.4,263.8 304.7,238.7 429.1,238.7 437.6,263.8 
	585.2,263.8 "/>
<polyline fill="none" stroke="#000000" stroke-miterlimit="10" points="47,314 152.7,314 163,289 287.4,289 295.9,314 585.2,314 "/>
<polyline fill="none" stroke="#000000" stroke-miterlimit="10" points="47,363.6 152.7,363.6 163,338.6 287.4,338.6 295.9,363.6 
	585.2,363.6 "/>
<polyline fill="none" stroke="#000000" stroke-miterlimit="10" points="47,413.2 152.7,413.2 163,388.2 287.4,388.2 295.9,413.2 
	585.2,413.2 "/>
<path fill="none" stroke="#707071" d="M160.3,109.1c3.5,1.2,6.9-1.8,9.5-4.4s6.8-5,9.7-2.7c2.2,2.1,4.6,4,7.3,5.5
	c5.6-0.1,9.9,4.9,15.4,6.2c1.8,0.4,3.7,0.4,5.6,0.4c14.5-0.1,29.1-0.3,43.6-0.4c4.7,0,9.6-0.2,13.5-2.8c1.7-1.1,3-2.6,4.7-3.6
	c3.7-2.2,8.4-1.7,12.7-1.1"/>
<path fill="none" stroke="#707071" d="M170.1,162.4c-0.4,0.7-1.7,0.3-2-0.5c-0.3-0.8,0.1-1.7,0.5-2.4c1.9-4,3.8-8,6.9-11.1
	s7.5-5.2,11.8-4.3c1.2,4.8,6.1,7.4,10.6,9.6c4.8,2.3,9.6,4.5,14.4,6.8c11.5-0.8,23-1.6,34.5-2.4c1.6-0.1,4.1,1.2,2.9,2.4
	c8.4,0,16.7,0,25.1,0"/>
<path fill="none" stroke="#707071" d="M300.3,212c4.7-4.7,11.5-7.4,18.1-7c0,1.2,0,2.4,0.1,3.6c6.5-0.8,13.5-1.4,19.3,1.7
	c1.5,0.8,3,1.9,4.6,2.6c2.3,1,4.9,1,7.4,0.9c10.6-0.3,21.2-2.6,30.9-6.9c14.3-0.1,28.7,2.7,41.9,8.2"/>
<path fill="none" stroke="#707071" d="M304.2,262.8c0-1.1,0-2.3,0-3.4c4.6-1.1,9.3-1.4,14-0.8c1.9,2.4,2.8,5.5,2.4,8.6
	c6.1,0,12.3,0,18.4-0.1c1.7,0,4.2,1.1,3.4,2.6c8.6,0,17.2-0.1,25.9-0.1c2.6,0,5.2,0,7.7-0.1c7.9-0.2,15.7-0.7,23.6-1.5
	c6.8-5.1,15-8.1,23.5-8.6"/>
<path fill="none" stroke="#707071" d="M163.2,366.3c0.7-3.7,2-7.4,3.8-10.8c1,0,2.1,0,3.1,0c4.4,4.9,7.8,10.6,10.1,16.7
	c7.6,0.4,13-7.2,16.7-13.9c4,3.3,9.6,4.7,14.7,3.5c0.4-2.1,0.9-4.2,1.3-6.4c21.8,0.1,43.5,1.4,65.1,3.8"/>
<path fill="none" stroke="#707071" d="M167.6,409.5c5.2-7.3,15.9-10.2,24-6.5c1.5,0.7,2.9,1.5,4.4,2.1c1.4,0.5,2.9,0.7,4.2,1.5
	c0.9,0.5,1.5,1.3,2.2,2.1c4.8,4.8,12.4,6.5,18.8,4.2c0.5-1.8,0.9-3.6,1.4-5.4c4.3-0.3,8.8,0.9,12.3,3.4c-0.4-2.1,2.1-3.4,4.2-4
	c0.9,4.1,5.2,7.2,9.4,6.6c-0.5-1.8,1.4-3.8,3.2-3.4c-0.6-2.2,2.5-4.3,4.4-3c-1,1.8,1.9,3.1,3.9,3c4.5,0,9-0.1,13.5-0.1"/>
<path fill="none" stroke="#707071" d="M163.7,314.1c1-3.6,1.8-7.3,2.4-10.9c1,0.9,2.3-0.9,2-2.2c1.1,1.5,1.5,3.5,1,5.4
	c8.8-1,17.8,0.2,26.1,3.3c2.1-1.9,4.2-3.7,6.4-5.6c5.3,2.7,12.3,1.6,16.5-2.6c2.9,0.3,6.4,1.3,6.9,4.1c2.3,0.2,3.1-3,3-5.4
	c4.1-1.9,7.1,5,11.5,5.8c1.1,0.2,2.2,0,3.3-0.2c8.4-1.4,17.1-1.1,25.4,0.8"/>
</svg>
