<?xml version="1.0" encoding="utf-8"?>
<!-- Generator: Adobe Illustrator 18.1.1, SVG Export Plug-In . SVG Version: 6.00 Build 0)  -->
<svg version="1.1" id="Layer_1" xmlns="http://www.w3.org/2000/svg" xmlns:xlink="http://www.w3.org/1999/xlink" x="0px" y="0px"
	 viewBox="0 0 878 354.1" enable-background="new 0 0 878 354.1" xml:space="preserve">
<rect y="20" fill="none" width="800" height="26.2"/>
<text transform="matrix(1 0 0 1 241.4805 38.5039)" font-family="'LucidaSans'" font-size="24">Finding a Previous Revision</text>
<path fill="none" stroke="#000000" stroke-width="5" stroke-miterlimit="10" d="M176.8,179.9H22.9c-6.6,0-12-5.4-12-12v-58.3
	c0-6.6,5.4-12,12-12h153.9c6.6,0,12,5.4,12,12v58.3C188.8,174.5,183.4,179.9,176.8,179.9z"/>
<rect x="8" y="121.6" fill="none" width="183.8" height="42.4"/>
<text transform="matrix(1 0 0 1 42.1395 135.4883)"><tspan x="0" y="0" font-family="'LucidaSans'" font-size="18">Go to History</tspan><tspan x="26.2" y="21.6" font-family="'LucidaSans'" font-size="18">Section</tspan></text>
<rect x="308.1" y="121.6" fill="none" width="183.8" height="42.4"/>
<text transform="matrix(1 0 0 1 317.0571 135.4883)"><tspan x="0" y="0" font-family="'LucidaSans'" font-size="18">Check Top Revsion</tspan><tspan x="45.4" y="21.6" font-family="'LucidaSans'" font-size="18">Changes</tspan></text>
<path fill="none" stroke="#000000" stroke-width="5" stroke-miterlimit="10" d="M474.2,179.9H320.3c-6.6,0-12-5.4-12-12v-58.3
	c0-6.6,5.4-12,12-12h153.9c6.6,0,12,5.4,12,12v58.3C486.2,174.5,480.8,179.9,474.2,179.9z"/>
<path fill="none" stroke="#000000" stroke-width="5" stroke-miterlimit="10" d="M779.1,179.9H625.1c-6.6,0-12-5.4-12-12v-58.3
	c0-6.6,5.4-12,12-12h153.9c6.6,0,12,5.4,12,12v58.3C791.1,174.5,785.7,179.9,779.1,179.9z"/>
<path fill="none" stroke="#000000" stroke-width="5" stroke-miterlimit="10" d="M779.1,312H625.1c-6.6,0-12-5.4-12-12v-58.3
	c0-6.6,5.4-12,12-12h153.9c6.6,0,12,5.4,12,12V300C791.1,306.6,785.7,312,779.1,312z"/>
<g>
	<path fill="none" stroke="#000000" stroke-width="4" stroke-miterlimit="10" d="M215.6,136.5"/>
	<polyline fill="none" stroke="#000000" stroke-width="4" stroke-miterlimit="10" points="202,136.5 292.9,136.5 277.5,119.6 	"/>
	<path fill="none" stroke="#000000" stroke-width="4" stroke-miterlimit="10" d="M278.7,157.9"/>
	<path fill="none" stroke="#000000" stroke-width="4" stroke-miterlimit="10" d="M292.9,136.5"/>
	<line fill="none" stroke="#000000" stroke-width="4" stroke-miterlimit="10" x1="276.6" y1="155.9" x2="295.4" y2="136.6"/>
</g>
<g>
	<path fill="none" stroke="#000000" stroke-width="4" stroke-miterlimit="10" d="M515.1,134.4"/>
	<polyline fill="none" stroke="#000000" stroke-width="4" stroke-miterlimit="10" points="500,134.4 601.1,134.4 584,117.5 	"/>
	<path fill="none" stroke="#000000" stroke-width="4" stroke-miterlimit="10" d="M585.3,155.8"/>
	<path fill="none" stroke="#000000" stroke-width="4" stroke-miterlimit="10" d="M601.1,134.4"/>
	<line fill="none" stroke="#000000" stroke-width="4" stroke-miterlimit="10" x1="582.9" y1="153.8" x2="603.9" y2="134.5"/>
</g>
<g>
	<path fill="none" stroke="#000000" stroke-width="4" stroke-miterlimit="10" d="M513.1,182.1"/>
	<polyline fill="none" stroke="#000000" stroke-width="4" stroke-miterlimit="10" points="502.8,171 571.3,245.3 572.2,221.3 	"/>
	<path fill="none" stroke="#000000" stroke-width="4" stroke-miterlimit="10" d="M544.9,248.2"/>
	<path fill="none" stroke="#000000" stroke-width="4" stroke-miterlimit="10" d="M571.3,245.3"/>
	<line fill="none" stroke="#000000" stroke-width="4" stroke-miterlimit="10" x1="544.8" y1="245.1" x2="573.1" y2="247.5"/>
</g>
<rect x="472.4" y="85" fill="none" width="146" height="40.6"/>
<text transform="matrix(1 0 0 1 509.019 97.3359)"><tspan x="0" y="0" font-family="'LucidaSans'" font-size="16">If desired </tspan><tspan x="6" y="19.2" font-family="'LucidaSans'" font-size="16">revision</tspan></text>
<rect x="613.1" y="126" fill="none" width="177.9" height="26.7"/>
<text transform="matrix(1 0 0 1 637.5352 139.8779)" font-family="'LucidaSans'" font-size="18">Select Revision</text>
<rect x="529.7" y="176.8" fill="none" width="58.4" height="19.5"/>
<text transform="matrix(1 0 0 1 543.7584 189.0859)" font-family="'LucidaSans'" font-size="16">Else</text>
<rect x="623.1" y="248.3" fill="none" width="158" height="51"/>
<text transform="matrix(1 0 0 1 649.6508 260.6846)"><tspan x="0" y="0" font-family="'LucidaSans'" font-size="16">Scroll to Next </tspan><tspan x="20.2" y="19.2" font-family="'LucidaSans'" font-size="16">Revision</tspan></text>
<path fill="none" stroke="#000000" stroke-width="4" stroke-miterlimit="10" d="M623.1,328c0,0-246.1-32-245.1-108"/>
<polyline fill="none" stroke="#000000" stroke-width="4" stroke-miterlimit="10" points="359.1,248.5 377.3,220.4 406.8,239.5 "/>
</svg>
