<?xml version="1.0" encoding="utf-8"?>
<!-- Generator: Adobe Illustrator 17.1.0, SVG Export Plug-In . SVG Version: 6.00 Build 0)  -->
<!DOCTYPE svg PUBLIC "-//W3C//DTD SVG 1.1//EN" "http://www.w3.org/Graphics/SVG/1.1/DTD/svg11.dtd">
<svg version="1.1" id="Layer_1" xmlns="http://www.w3.org/2000/svg" xmlns:xlink="http://www.w3.org/1999/xlink" x="0px" y="0px"
	 viewBox="0 0 800 482" enable-background="new 0 0 800 482" xml:space="preserve">
<line fill="none" stroke="#000000" stroke-width="3" stroke-miterlimit="10" x1="97.9" y1="306.3" x2="97.9" y2="141.3"/>
<polyline fill="none" stroke="#000000" stroke-width="3" stroke-miterlimit="10" points="97.9,361.3 97.9,303 152.9,251.3 
	152.9,191 97.9,141.3 97.9,86.3 "/>
<path fill="none" stroke="#000000" stroke-width="3" stroke-miterlimit="10" d="M743.5,458.9c0,3.9-3.2,7.1-7.1,7.1H54.1
	c-3.9,0-7.1-3.2-7.1-7.1V17.3c0-3.9,3.2-7.1,7.1-7.1h682.3c3.9,0,7.1,3.2,7.1,7.1V458.9z"/>
<line fill="#FFFFFF" stroke="#000000" stroke-width="3" stroke-miterlimit="10" x1="47" y1="37.4" x2="743.5" y2="37.4"/>
<rect x="56.5" y="16.3" fill="none" width="34.7" height="17.8"/>
<text transform="matrix(1 0 0 1 56.4927 28.1743)" font-family="'ArialMT'" font-size="16.597">File</text>
<rect x="111.9" y="16.3" fill="none" width="67.7" height="17.8"/>
<text transform="matrix(1 0 0 1 111.8775 28.1743)" font-family="'ArialMT'" font-size="16.597">Window</text>
<rect x="210.4" y="16.3" fill="none" width="64.8" height="17.8"/>
<text transform="matrix(1 0 0 1 210.4439 28.1743)" font-family="'ArialMT'" font-size="16.597">Options</text>
<line fill="#FFFFFF" stroke="#000000" stroke-width="3" stroke-miterlimit="10" x1="585.2" y1="36.4" x2="585.2" y2="466"/>
<line fill="#FFFFFF" stroke="#000000" stroke-width="3" stroke-miterlimit="10" x1="198.6" y1="36.4" x2="198.6" y2="466"/>
<path fill="#FFFFFF" stroke="#000000" stroke-width="3" stroke-miterlimit="10" d="M728.9,101.4c0,6.2-5.9,11.3-13.1,11.3H607
	c-7.2,0-13.1-5.1-13.1-11.3v-33c0-6.2,5.9-11.3,13.1-11.3h108.8c7.2,0,13.1,5.1,13.1,11.3V101.4z"/>
<rect x="617.5" y="65.9" fill="none" width="81.9" height="46.9"/>
<text transform="matrix(1 0 0 1 617.4707 79.7989)"><tspan x="0" y="0" font-family="'MyriadPro-Regular'" font-size="19.6191">Back to </tspan><tspan x="0" y="23.5" font-family="'MyriadPro-Regular'" font-size="19.6191">changes</tspan></text>
<rect x="603.4" y="137.1" fill="none" width="116.9" height="61"/>
<text transform="matrix(1 0 0 1 603.3877 153.3018)"><tspan x="0" y="0" font-family="'MyriadPro-Regular'" font-size="22.889">Info About </tspan><tspan x="0" y="27.5" font-family="'MyriadPro-Regular'" font-size="22.889">Revision</tspan></text>
<path fill="none" stroke="#000000" stroke-miterlimit="10" d="M604,214.2c1.9-4,4-7.9,7.3-10.9c3.3-2.9,8-4.6,12.2-3.2
	c4.7,8.6,13.4,15,23,17c3.5,0.7,8.2,2.2,7.7,5.7c3.2,0.5,5.9-2.4,8.6-4.3s7.7-1.8,8,1.4c11.5-3.4,23.6-4.6,35.5-3.6"/>
<path fill="none" stroke="#000000" stroke-miterlimit="10" d="M606.5,244.8c-1.1-5.7-0.2-11.9,2.5-17.1c2.2-2.4,6.4-0.6,8.2,2.2
	c1.8,2.7,2.5,6.2,4.9,8.5c4.6,4.5,12.3,2.1,18.6,3.3c3.8,0.7,7.1,2.8,10.8,3.9c3.7,1.1,8.2,1.1,10.7-1.8c0.3-0.3,0.5-0.6,0.6-1
	c12.6,1,25.1,2,37.7,3c2,0.2,4,0.3,5.9-0.3c3.3-1.1,6.5-4.4,9.7-3.1"/>
<path fill="none" stroke="#000000" stroke-miterlimit="10" d="M605.9,270.5c8.1-9.9,22-14.7,34.5-12c-1.3,1.6-0.9,4.1,0.5,5.7
	c1.4,1.5,3.4,2.3,5.4,2.9c7.1,2.2,14.5,3.4,21.9,3.6c4.2,0.1,8.6-0.1,12.6,1.2c3.3,1.1,6.2,3.2,9.6,3.9c6.8,1.4,13.8-3.3,20.5-1.5"
	/>
<circle fill="#939598" stroke="#000000" stroke-width="3" stroke-miterlimit="10" cx="97.9" cy="86.3" r="18.4"/>
<circle fill="#939598" stroke="#000000" stroke-width="3" stroke-miterlimit="10" cx="97.9" cy="141.3" r="18.4"/>
<circle fill="#939598" stroke="#000000" stroke-width="3" stroke-miterlimit="10" cx="152.9" cy="196.3" r="18.4"/>
<circle fill="#939598" stroke="#000000" stroke-width="3" stroke-miterlimit="10" cx="152.9" cy="251.3" r="18.4"/>
<circle fill="#939598" stroke="#000000" stroke-width="3" stroke-miterlimit="10" cx="97.9" cy="306.3" r="18.4"/>
<circle fill="#939598" stroke="#000000" stroke-width="3" stroke-miterlimit="10" cx="97.9" cy="361.3" r="18.4"/>
<g>
	<g>
		<line fill="none" stroke="#000000" stroke-miterlimit="10" x1="206" y1="104.7" x2="212" y2="104.7"/>
		
			<line fill="none" stroke="#000000" stroke-miterlimit="10" stroke-dasharray="11.8889,11.8889" x1="223.9" y1="104.7" x2="527.1" y2="104.7"/>
		<line fill="none" stroke="#000000" stroke-miterlimit="10" x1="533" y1="104.7" x2="539" y2="104.7"/>
	</g>
</g>
<g>
	<g>
		<line fill="none" stroke="#000000" stroke-miterlimit="10" x1="206" y1="167.6" x2="212" y2="167.6"/>
		
			<line fill="none" stroke="#000000" stroke-miterlimit="10" stroke-dasharray="11.8889,11.8889" x1="223.9" y1="167.6" x2="527.1" y2="167.6"/>
		<line fill="none" stroke="#000000" stroke-miterlimit="10" x1="533" y1="167.6" x2="539" y2="167.6"/>
	</g>
</g>
<g>
	<g>
		<line fill="none" stroke="#000000" stroke-miterlimit="10" x1="206" y1="225.4" x2="212" y2="225.4"/>
		
			<line fill="none" stroke="#000000" stroke-miterlimit="10" stroke-dasharray="11.8889,11.8889" x1="223.9" y1="225.4" x2="527.1" y2="225.4"/>
		<line fill="none" stroke="#000000" stroke-miterlimit="10" x1="533" y1="225.4" x2="539" y2="225.4"/>
	</g>
</g>
<g>
	<g>
		<line fill="none" stroke="#000000" stroke-miterlimit="10" x1="206" y1="281.2" x2="212" y2="281.2"/>
		
			<line fill="none" stroke="#000000" stroke-miterlimit="10" stroke-dasharray="11.8889,11.8889" x1="223.9" y1="281.2" x2="527.1" y2="281.2"/>
		<line fill="none" stroke="#000000" stroke-miterlimit="10" x1="533" y1="281.2" x2="539" y2="281.2"/>
	</g>
</g>
<g>
	<g>
		<line fill="none" stroke="#000000" stroke-miterlimit="10" x1="206" y1="340.1" x2="212" y2="340.1"/>
		
			<line fill="none" stroke="#000000" stroke-miterlimit="10" stroke-dasharray="11.8889,11.8889" x1="223.9" y1="340.1" x2="527.1" y2="340.1"/>
		<line fill="none" stroke="#000000" stroke-miterlimit="10" x1="533" y1="340.1" x2="539" y2="340.1"/>
	</g>
</g>
<path fill="none" stroke="#000000" stroke-miterlimit="10" d="M223.4,76.4c4.4-5.9,11.4-10.9,19.7-11.5c8.3-0.6,17.3,4.9,16.9,11.8
	c5.8-2.7,11.9-5.4,18.5-5.7c6.6-0.3,13.9,2.8,15.5,8.1c7.3-2.2,15-3.3,22.7-3.3c1.8,4.9,6.5,8.9,12.3,10.5c-0.4-5,4.5-9.8,10.5-10.4
	s12,3.3,13,8.2c4.5-0.8,7.5-5,6.3-8.7c10.7,0.3,21.3,3.3,29.9,8.7c5.6-11.4,27.1-14.1,36.5-4.6"/>
<path fill="none" stroke="#000000" stroke-miterlimit="10" d="M209.3,152c-0.4-7.6,3.4-15.4,10-20.6c3-2.4,7.6-4.4,11.3-2.8
	c2.1,0.9,3.4,2.7,4.6,4.4c5.4,7.8,10.7,15.6,16.1,23.5c5.3-3.7,8.5-9.4,8.4-15.1c11.8-2.1,24.6-0.2,34.7,5.3
	c7.3-7.6,24.6-5.2,28.4,4c4.3-2.1,6.4-7,4.6-10.9c6.9,2.3,13.1,6.1,17.6,11c1.5-9.2,17.7-11.1,27.1-6.2c1.8,1,3.7,2.1,5.8,2.3
	c3.7,0.4,6.8-2.1,9.7-4c15.5-10.3,41.3-7.3,52.8,6.2"/>
<path fill="none" stroke="#000000" stroke-miterlimit="10" d="M217.7,207c1.2-6.9,4.9-13.5,10.5-18.7c1.1-1.1,2.5-2.1,4.2-2.3
	c3.3-0.4,5.8,2.3,7.3,4.8c5.3,8.5,13,19.2,24.3,17.3c3.8-9.5,11-21,23.1-20.2c6.6,0.5,11.8,4.7,17.3,7.7s13.8,4.7,18.3,0.7
	c1.6-1.4,2.4-3.2,3.8-4.7c5.3-5.6,15.9-4,24.2-1.7c2.4,0.7,4.9,1.3,7.3,2c12.7,3.4,27,8.2,31.2,18.7c7.6-3.2,8.3-13.6,16.5-15.6
	c2.7-0.7,5.6-0.2,8.4,0.3c18.3,3.2,36.6,6.4,54.9,9.6"/>
<path fill="none" stroke="#000000" stroke-miterlimit="10" d="M216.8,264.1c3-6.7,7.7-13.8,16-16.1s19.3,3.9,16.5,10.8
	c11.5-11.2,36-10,45.8,2.3c1.7-6.3,12.1-8.6,19.1-5.8c7.1,2.8,11.4,8.7,15.3,14.3c4.4-5.6,13.9-7.8,21.1-4.9c4.3,1.7,8.3,5.1,13,4.5
	c4-0.5,6.6-3.7,10.3-5c8.9-3.2,20.2,5.3,28.1,0.6c2.6-1.5,4-4.2,6.7-5.6c2.5-1.2,5.5-1.1,8.4-0.9c17.9,1,35.9,2,53.8,3"/>
<path fill="none" stroke="#000000" stroke-miterlimit="10" d="M213.1,318c1.2-5.5,7.9-9.8,14.6-9.3s12.4,5.8,12.3,11.4
	c13.2-7.1,30.4-8.8,45.3-4.6c2.8-4.5,5.6-9,8.4-13.5c2.4-1.2,4.8,1.5,5.7,3.6c4.6,10.4,9.2,20.9,13.7,31.3c3.5-2.9,7-5.8,10.4-8.7
	c5.7-4.7,11.9-9.7,19.9-10.7c8-1,17.4,4.2,16.1,10.7c11.1-5.2,24.6-6.9,37.1-4.6c4.3,0.8,8.8,2.1,13.1,1c3.4-0.8,6.1-3,9.1-4.6
	c6.5-3.2,15.3-3.1,21.7,0.2"/>
<path fill="none" stroke="#000000" stroke-miterlimit="10" d="M207.3,376.9c3-6.2,8.5-11.6,15.3-15.1c2.1-1.1,4.5-2.1,7-2
	c11.5,0.4,11.7,19.3,23.2,18.9c4.5-13,14.1-24.8,27-33.3c0.4,7,0.9,14.2,4.2,20.7c3.3,6.5,10.1,12.2,18.6,13s17.6-5,16.9-12
	c5.9,3.7,11.8,7.4,17.7,11.1c1.3-3.3,2.7-6.7,4-10c8.5-2.9,18.4,5.2,26.7,2c2.1-0.8,3.8-2.3,5.9-3.2c3.9-1.6,8.5-1,12.7-0.3
	c12.9,2.1,25.8,4.1,38.7,6.2"/>
</svg>
