<?xml version="1.0" encoding="utf-8"?>
<!-- Generator: Adobe Illustrator 17.1.0, SVG Export Plug-In . SVG Version: 6.00 Build 0)  -->
<!DOCTYPE svg PUBLIC "-//W3C//DTD SVG 1.1//EN" "http://www.w3.org/Graphics/SVG/1.1/DTD/svg11.dtd">
<svg version="1.1" id="Layer_1" xmlns="http://www.w3.org/2000/svg" xmlns:xlink="http://www.w3.org/1999/xlink" x="0px" y="0px"
	 viewBox="0 0 800 482" enable-background="new 0 0 800 482" xml:space="preserve">
<g>
	<g>
		<line fill="none" stroke="#000000" stroke-width="2" stroke-miterlimit="10" x1="118.1" y1="249" x2="120.1" y2="243.3"/>
		
			<line fill="none" stroke="#000000" stroke-width="2" stroke-miterlimit="10" stroke-dasharray="13.7481,13.7481" x1="124.6" y1="230.3" x2="131.4" y2="210.8"/>
		<line fill="none" stroke="#000000" stroke-width="2" stroke-miterlimit="10" x1="133.6" y1="204.3" x2="135.6" y2="198.7"/>
	</g>
</g>
<g>
	<g>
		<line fill="none" stroke="#000000" stroke-width="2" stroke-miterlimit="10" x1="135.6" y1="198.7" x2="141.6" y2="198.7"/>
		
			<line fill="none" stroke="#000000" stroke-width="2" stroke-miterlimit="10" stroke-dasharray="12.0451,12.0451" x1="153.6" y1="198.7" x2="195.8" y2="198.7"/>
		<line fill="none" stroke="#000000" stroke-width="2" stroke-miterlimit="10" x1="201.8" y1="198.7" x2="207.8" y2="198.7"/>
	</g>
</g>
<g>
	<g>
		<line fill="none" stroke="#000000" stroke-width="2" stroke-miterlimit="10" x1="201.5" y1="249" x2="204.4" y2="243.7"/>
		
			<line fill="none" stroke="#000000" stroke-width="2" stroke-miterlimit="10" stroke-dasharray="8.0464,8.0464" x1="208.3" y1="236.7" x2="214.2" y2="226.1"/>
		<line fill="none" stroke="#000000" stroke-width="2" stroke-miterlimit="10" x1="216.1" y1="222.6" x2="219" y2="217.3"/>
	</g>
</g>
<g>
	<g>
		<line fill="none" stroke="#000000" stroke-width="2" stroke-miterlimit="10" x1="219" y1="217.3" x2="225" y2="217.3"/>
		
			<line fill="none" stroke="#000000" stroke-width="2" stroke-miterlimit="10" stroke-dasharray="12.0451,12.0451" x1="237.1" y1="217.3" x2="279.2" y2="217.3"/>
		<line fill="none" stroke="#000000" stroke-width="2" stroke-miterlimit="10" x1="285.3" y1="217.3" x2="291.3" y2="217.3"/>
	</g>
</g>
<g>
	<g>
		<line fill="none" stroke="#000000" stroke-width="2" stroke-miterlimit="10" x1="451.9" y1="249" x2="453.9" y2="243.3"/>
		
			<line fill="none" stroke="#000000" stroke-width="2" stroke-miterlimit="10" stroke-dasharray="13.7481,13.7481" x1="458.4" y1="230.3" x2="465.2" y2="210.8"/>
		<line fill="none" stroke="#000000" stroke-width="2" stroke-miterlimit="10" x1="467.4" y1="204.3" x2="469.4" y2="198.7"/>
	</g>
</g>
<g>
	<g>
		<line fill="none" stroke="#000000" stroke-width="2" stroke-miterlimit="10" x1="469.4" y1="198.7" x2="475.4" y2="198.7"/>
		
			<line fill="none" stroke="#000000" stroke-width="2" stroke-miterlimit="10" stroke-dasharray="12.0451,12.0451" x1="487.4" y1="198.7" x2="529.6" y2="198.7"/>
		<line fill="none" stroke="#000000" stroke-width="2" stroke-miterlimit="10" x1="535.6" y1="198.7" x2="541.6" y2="198.7"/>
	</g>
</g>
<g>
	<g>
		<line fill="none" stroke="#000000" stroke-width="2" stroke-miterlimit="10" x1="535.3" y1="249" x2="538.2" y2="243.7"/>
		
			<line fill="none" stroke="#000000" stroke-width="2" stroke-miterlimit="10" stroke-dasharray="8.0464,8.0464" x1="542.1" y1="236.7" x2="548" y2="226.1"/>
		<line fill="none" stroke="#000000" stroke-width="2" stroke-miterlimit="10" x1="549.9" y1="222.6" x2="552.8" y2="217.3"/>
	</g>
</g>
<g>
	<g>
		<line fill="none" stroke="#000000" stroke-width="2" stroke-miterlimit="10" x1="552.8" y1="217.3" x2="558.8" y2="217.3"/>
		
			<line fill="none" stroke="#000000" stroke-width="2" stroke-miterlimit="10" stroke-dasharray="12.0451,12.0451" x1="570.9" y1="217.3" x2="613" y2="217.3"/>
		<line fill="none" stroke="#000000" stroke-width="2" stroke-miterlimit="10" x1="619.1" y1="217.3" x2="625.1" y2="217.3"/>
	</g>
</g>
<g>
	<g>
		<line fill="none" stroke="#000000" stroke-width="2" stroke-miterlimit="10" x1="281.8" y1="340.3" x2="283.4" y2="346.1"/>
		
			<line fill="none" stroke="#000000" stroke-width="2" stroke-miterlimit="10" stroke-dasharray="11.3297,11.3297" x1="286.3" y1="357" x2="296.4" y2="395.4"/>
		<line fill="none" stroke="#000000" stroke-width="2" stroke-miterlimit="10" x1="297.8" y1="400.9" x2="299.3" y2="406.7"/>
	</g>
</g>
<g>
	<g>
		<line fill="none" stroke="#000000" stroke-width="2" stroke-miterlimit="10" x1="299.3" y1="406.7" x2="305.3" y2="406.7"/>
		
			<line fill="none" stroke="#000000" stroke-width="2" stroke-miterlimit="10" stroke-dasharray="12.0451,12.0451" x1="317.4" y1="406.7" x2="359.5" y2="406.7"/>
		<line fill="none" stroke="#000000" stroke-width="2" stroke-miterlimit="10" x1="365.6" y1="406.7" x2="371.6" y2="406.7"/>
	</g>
</g>
<g>
	<g>
		<line fill="none" stroke="#000000" stroke-width="2" stroke-miterlimit="10" x1="365.3" y1="340.3" x2="367.6" y2="345.8"/>
		
			<line fill="none" stroke="#000000" stroke-width="2" stroke-miterlimit="10" stroke-dasharray="11.0865,11.0865" x1="371.9" y1="356" x2="378.3" y2="371.4"/>
		<line fill="none" stroke="#000000" stroke-width="2" stroke-miterlimit="10" x1="380.5" y1="376.5" x2="382.8" y2="382"/>
	</g>
</g>
<g>
	<g>
		<line fill="none" stroke="#000000" stroke-width="2" stroke-miterlimit="10" x1="382.8" y1="382" x2="388.8" y2="382"/>
		
			<line fill="none" stroke="#000000" stroke-width="2" stroke-miterlimit="10" stroke-dasharray="12.0451,12.0451" x1="400.8" y1="382" x2="443" y2="382"/>
		<line fill="none" stroke="#000000" stroke-width="2" stroke-miterlimit="10" x1="449" y1="382" x2="455" y2="382"/>
	</g>
</g>
<polyline fill="none" stroke="#000000" stroke-width="4" stroke-miterlimit="10" points="118.1,268.7 201.5,268.7 285,343 
	368.4,343 451.9,268.7 535.3,268.7 "/>
<line fill="none" stroke="#000000" stroke-width="4" stroke-miterlimit="10" x1="201.5" y1="268.7" x2="451.9" y2="268.7"/>
<path fill="none" stroke="#000000" stroke-width="3" stroke-miterlimit="10" d="M743.5,458.9c0,3.9-3.2,7.1-7.1,7.1H54.1
	c-3.9,0-7.1-3.2-7.1-7.1V17.3c0-3.9,3.2-7.1,7.1-7.1h682.3c3.9,0,7.1,3.2,7.1,7.1V458.9z"/>
<line fill="#FFFFFF" stroke="#000000" stroke-width="3" stroke-miterlimit="10" x1="47" y1="37.4" x2="743.5" y2="37.4"/>
<rect x="56.5" y="16.3" fill="none" width="34.7" height="17.8"/>
<text transform="matrix(1 0 0 1 56.4927 28.1743)" font-family="'ArialMT'" font-size="16.597">File</text>
<rect x="111.9" y="16.3" fill="none" width="67.7" height="17.8"/>
<text transform="matrix(1 0 0 1 111.8775 28.1743)" font-family="'ArialMT'" font-size="16.597">Window</text>
<rect x="210.4" y="16.3" fill="none" width="64.8" height="17.8"/>
<text transform="matrix(1 0 0 1 210.4439 28.1743)" font-family="'ArialMT'" font-size="16.597">Options</text>
<line fill="none" stroke="#000000" stroke-width="3" stroke-miterlimit="10" x1="47" y1="87" x2="743.5" y2="87"/>
<path fill="none" stroke="#000000" stroke-width="2" stroke-miterlimit="10" d="M213.2,67c0,6.6-5.4,12-12,12h-74.6
	c-6.6,0-12-5.4-12-12v-9c0-6.6,5.4-12,12-12h74.6c6.6,0,12,5.4,12,12V67z"/>
<line fill="none" stroke="#000000" stroke-width="4" stroke-miterlimit="10" x1="105.5" y1="64" x2="57.6" y2="64"/>
<line fill="none" stroke="#000000" stroke-width="4" stroke-miterlimit="10" x1="57.6" y1="65" x2="70.8" y2="51.8"/>
<line fill="none" stroke="#000000" stroke-width="4" stroke-miterlimit="10" x1="57.6" y1="63" x2="72.1" y2="77.5"/>
<rect x="143.2" y="54.8" fill="none" width="40.5" height="15.5"/>
<text transform="matrix(1 0 0 1 143.2256 67.5303)" font-family="'MyriadPro-Regular'" font-size="18">Back</text>
<circle fill="#808285" stroke="#000000" stroke-width="4" stroke-miterlimit="10" cx="118.1" cy="268.7" r="21.3"/>
<circle fill="#808285" stroke="#000000" stroke-width="4" stroke-miterlimit="10" cx="201.5" cy="268.7" r="21.3"/>
<circle fill="#808285" stroke="#000000" stroke-width="4" stroke-miterlimit="10" cx="285" cy="343" r="21.3"/>
<circle fill="#808285" stroke="#000000" stroke-width="4" stroke-miterlimit="10" cx="368.4" cy="343" r="21.3"/>
<circle fill="#808285" stroke="#000000" stroke-width="4" stroke-miterlimit="10" cx="451.9" cy="268.7" r="21.3"/>
<circle fill="#808285" stroke="#000000" stroke-width="4" stroke-miterlimit="10" cx="535.3" cy="268.7" r="21.3"/>
<rect x="59.3" y="115.2" fill="none" width="117.7" height="12.3"/>
<text transform="matrix(1 0 0 1 59.2498 125.1455)" font-family="'MyriadPro-Regular'" font-size="14">Hover for extra info</text>
<path fill="none" stroke="#000000" stroke-miterlimit="10" d="M235,207.4c10.5-5.2,22.7-10.6,33.5-6.1c1.2,0.5,2.3,1.1,3.5,1.4
	c1.8,0.5,3.8,0.5,5.6,1.1c5.1,1.6,8.5,7.3,13.9,7.7c1.9,0.1,3.8-0.5,5.8-0.4s4.1,1.4,4,3.3c9.8-0.1,19.6,0,29.4,0.2"/>
<path fill="none" stroke="#000000" stroke-miterlimit="10" d="M304.7,416.4c19.3,1.5,38.8,0.3,57.8-3.5c0.3,1.3,0.6,2.5,0.9,3.8
	c10.1,3.1,20.3,6.2,30.4,9.3"/>
<path fill="none" stroke="#000000" stroke-miterlimit="10" d="M393.3,375.4c7.9-0.5,15.8-1.1,23.6-1.6c1.6-0.1,3.3-0.3,4.3-1.5
	c1.9-2.4-0.5-7.2,2.2-8.6c4.8-2.9,10,4.4,15.6,4.3c1.9,0,3.6-0.9,5.4-1.2c6.6-1.2,13.3,4.8,19.8,2.9c2.2-0.6,4.1-2.1,6.2-2.8
	c8-2.5,15.9,6,24.1,4.6"/>
<path fill="none" stroke="#000000" stroke-miterlimit="10" d="M473.1,189.7c4.7-2,7.8-6.3,11.2-10.1c3.4-3.8,7.9-7.4,12.9-7
	c1.3,2.5,2.6,5.1,3.8,7.6c0.4,0.9,0.9,1.8,1.8,2.3c0.5,0.3,1.2,0.3,1.8,0.4c5.8,0.2,11.3-2.7,16.7-4.9c5.4-2.1,11.9-3.5,16.9-0.4
	c2.1,1.3,4.6,3.4,6.7,2.2"/>
<path fill="none" stroke="#000000" stroke-miterlimit="10" d="M558.1,210.2c7.9-9.5,20.1-15.4,32.5-15.7c-0.1,5.6,3.1,11,7.7,14.2
	s10.2,4.7,15.8,4.8c3.7,0.1,7.7-0.4,10.5-2.8c1.5-1.3,2.6-3,4.1-4.3c2.3-2.1,5.3-3.2,8.4-4c6.6-1.8,13.6-2.2,20.4-1.4"/>
<line fill="none" stroke="#000000" stroke-miterlimit="10" x1="135.6" y1="194.6" x2="191.3" y2="146"/>
<line fill="none" stroke="#000000" stroke-miterlimit="10" x1="207.1" y1="194.6" x2="262.9" y2="146"/>
<line fill="none" stroke="#000000" stroke-miterlimit="10" x1="191.3" y1="146" x2="418.9" y2="146"/>
<path fill="none" stroke="#000000" stroke-miterlimit="10" d="M189.2,133.2c4.5-6,9-12,13.5-18c0.7-0.9,1.5-1.9,2.6-2.2
	c2.6-0.7,4.5,2.4,5.3,4.9c1.5,4.6,2.6,9.3,3.5,14.1c1.3,0.3,2.5,0.6,3.8,0.8c1.6-5.1,5.3-9.6,10.1-12c2.4,4.5,4,9.5,4.8,14.6
	c2.7,0.6,3.2-3.6,4.8-5.9c2-3,6.9-2.5,9.4,0c2.6,2.5,3.5,6.2,4.2,9.7c3.8-4.3,9-7.1,14.4-8.7c8.5-2.5,18-2,25.7,2.3
	c2.1,1.2,4.6,2.7,6.8,1.7c2.1-0.9,2.7-3.6,3.8-5.6c2.7-4.7,9.3-5.9,14.4-4.2c5.1,1.7,9.2,5.6,13.1,9.4c1.7-3.9,6.5-5.5,10.8-5.3
	s8.3,2,12.5,2.9c16.7,3.5,36.1-5.8,50.3,3.7c4-5.5,8.7-10.4,14.1-14.6c1.1-0.8,2.2-1.7,3.5-1.9c2.2-0.5,4.4,0.7,6.3,1.9
	c5.9,3.7,11.2,8.2,15.9,13.3c5.6-4.8,14.5-5.3,20.6-1.2"/>
<path fill="none" stroke="#000000" stroke-miterlimit="10" d="M195.5,109c2.3-3.8,4.7-7.7,8.5-10s9.2-2.5,12.2,0.8
	c2.8,3.1,2.9,8.7,6.8,10.3c3.5,1.4,7-1.5,10.3-3.5c7.3-4.3,16.3-3.7,24.8-2.9c8.1,0.7,18.2,3.3,19.3,11.3c3.2-0.5,5.7-3,7.9-5.4
	c2.2-2.4,4.5-5,7.6-5.9c3.1-0.9,7.2,1,7.3,4.2c10.3-0.8,20.8,0.8,30.4,4.8c0.7-5.1,7.1-7.5,12.2-6.6s9.7,3.6,14.8,4.5
	c7.5,1.2,15.6-1.8,22.4,1.5c1.4,0.7,2.8,1.7,4.4,1.9c5.9,0.9,9.4-8.5,15.4-8c4.1,0.3,6.2,5.1,7.3,9.1c5.6-3.8,11.4-7.8,18-9.6
	c6.6-1.8,14.2-1.2,19.4,3.4c2.5,2.2,5.3,5.6,8.5,4.4"/>
</svg>
