<?xml version="1.0" encoding="utf-8"?>
<!-- Generator: Adobe Illustrator 17.1.0, SVG Export Plug-In . SVG Version: 6.00 Build 0)  -->
<!DOCTYPE svg PUBLIC "-//W3C//DTD SVG 1.1//EN" "http://www.w3.org/Graphics/SVG/1.1/DTD/svg11.dtd">
<svg version="1.1" id="Layer_1" xmlns="http://www.w3.org/2000/svg" xmlns:xlink="http://www.w3.org/1999/xlink" x="0px" y="0px"
	 viewBox="0 0 720 480" enable-background="new 0 0 720 480" xml:space="preserve">
<rect x="38.5" y="51.5" fill="#FFFFFF" stroke="#000000" stroke-miterlimit="10" width="296" height="173"/>
<rect x="377.5" y="51.5" fill="#FFFFFF" stroke="#000000" stroke-miterlimit="10" width="296" height="173"/>
<rect x="212" y="261" fill="#FFFFFF" stroke="#000000" stroke-miterlimit="10" width="296" height="173"/>
<circle opacity="0.5" fill="#ED184B" cx="95" cy="131" r="11"/>
<circle opacity="0.5" fill="#ED184B" cx="84" cy="123.5" r="11"/>
<circle opacity="0.5" fill="#ED184B" cx="90.5" cy="120" r="11"/>
<circle opacity="0.5" fill="#ED184B" cx="106" cy="123.5" r="11"/>
<circle opacity="0.5" fill="#ED184B" cx="106" cy="134.5" r="11"/>
<circle opacity="0.5" fill="#ED184B" cx="123.5" cy="149" r="11"/>
<circle opacity="0.5" fill="#ED184B" cx="98.5" cy="149" r="11"/>
<circle opacity="0.5" fill="#ED184B" cx="87.5" cy="138" r="11"/>
<circle opacity="0.5" fill="#ED184B" cx="87.5" cy="131" r="11"/>
<circle opacity="0.5" fill="#ED184B" cx="101.5" cy="138" r="11"/>
<circle opacity="0.5" fill="#ED184B" cx="112.5" cy="145.5" r="11"/>
<circle opacity="0.5" fill="#ED184B" cx="117" cy="156.5" r="11"/>
<circle opacity="0.5" fill="#ED184B" cx="134.5" cy="165" r="11"/>
<circle opacity="0.5" fill="#ED184B" cx="164.5" cy="167.5" r="11"/>
<circle opacity="0.5" fill="#ED184B" cx="179.5" cy="170.5" r="11"/>
<circle opacity="0.5" fill="#ED184B" cx="190.5" cy="163" r="11"/>
<circle opacity="0.5" fill="#ED184B" cx="184" cy="156.5" r="11"/>
<circle opacity="0.5" fill="#ED184B" cx="168.5" cy="142" r="11"/>
<circle opacity="0.5" fill="#ED184B" cx="153.5" cy="145.5" r="11"/>
<circle opacity="0.5" fill="#ED184B" cx="186.5" cy="149" r="11"/>
<circle opacity="0.5" fill="#ED184B" cx="179.5" cy="156.5" r="11"/>
<circle opacity="0.5" fill="#ED184B" cx="190.5" cy="165" r="11"/>
<circle opacity="0.5" fill="#ED184B" cx="206" cy="156.5" r="11"/>
<circle opacity="0.5" fill="#ED184B" cx="206" cy="141" r="11"/>
<circle opacity="0.5" fill="#ED184B" cx="184" cy="134.5" r="11"/>
<circle opacity="0.5" fill="#ED184B" cx="228" cy="142" r="11"/>
<circle opacity="0.5" fill="#ED184B" cx="216.7" cy="149.3" r="11"/>
<circle opacity="0.5" fill="#ED184B" cx="197.5" cy="149.3" r="11"/>
<circle opacity="0.5" fill="#ED184B" cx="175.5" cy="145.5" r="11"/>
<circle opacity="0.5" fill="#ED184B" cx="208.5" cy="152" r="11"/>
<circle opacity="0.5" fill="#ED184B" cx="205.7" cy="163" r="11"/>
<circle opacity="0.5" fill="#ED184B" cx="223" cy="165" r="11"/>
<circle opacity="0.5" fill="#ED184B" cx="223" cy="151.3" r="11"/>
<circle opacity="0.5" fill="#ED184B" cx="234" cy="167.5" r="11"/>
<circle opacity="0.5" fill="#ED184B" cx="201.5" cy="176" r="11"/>
<circle opacity="0.5" fill="#ED184B" cx="217" cy="170.5" r="11"/>
<circle opacity="0.5" fill="#ED184B" cx="188.5" cy="170.5" r="11"/>
<circle opacity="0.5" fill="#ED184B" cx="212" cy="178.5" r="11"/>
<circle opacity="0.5" fill="#ED184B" cx="234" cy="181.5" r="11"/>
<circle opacity="0.5" fill="#ED184B" cx="245" cy="187" r="11"/>
<circle opacity="0.5" fill="#ED184B" cx="250" cy="170.5" r="11"/>
<circle opacity="0.5" fill="#ED184B" cx="265" cy="154" r="11"/>
<circle opacity="0.5" fill="#ED184B" cx="252.2" cy="143" r="11"/>
<circle opacity="0.5" fill="#ED184B" cx="272" cy="132" r="11"/>
<circle opacity="0.5" fill="#ED184B" cx="283" cy="138.3" r="11"/>
<circle opacity="0.5" fill="#ED184B" cx="283" cy="151.3" r="11"/>
<circle opacity="0.5" fill="#ED184B" cx="296.5" cy="170.5" r="11"/>
<circle opacity="0.5" fill="#ED184B" cx="283" cy="192.5" r="11"/>
<circle opacity="0.5" fill="#ED184B" cx="223" cy="211.5" r="11"/>
<circle opacity="0.5" fill="#ED184B" cx="128" cy="207.5" r="11"/>
<circle opacity="0.5" fill="#ED184B" cx="90.5" cy="189.5" r="11"/>
<circle opacity="0.5" fill="#ED184B" cx="57.5" cy="170.5" r="11"/>
<circle opacity="0.5" fill="#ED184B" cx="62" cy="132" r="11"/>
<circle opacity="0.5" fill="#ED184B" cx="87.5" cy="153" r="11"/>
<circle opacity="0.5" fill="#ED184B" cx="73" cy="145.5" r="11"/>
<circle opacity="0.5" fill="#ED184B" cx="79.5" cy="134.5" r="11"/>
<circle opacity="0.5" fill="#ED184B" cx="76.5" cy="116" r="11"/>
<circle opacity="0.5" fill="#ED184B" cx="84" cy="100" r="11"/>
<circle opacity="0.5" fill="#ED184B" cx="101.5" cy="101.5" r="11"/>
<circle opacity="0.5" fill="#ED184B" cx="68.5" cy="74.5" r="11"/>
<circle opacity="0.5" fill="#ED184B" cx="153.5" cy="66.5" r="11"/>
<circle opacity="0.5" fill="#ED184B" cx="134.5" cy="96.5" r="11"/>
<circle opacity="0.5" fill="#ED184B" cx="219.5" cy="81.5" r="11"/>
<circle opacity="0.5" fill="#ED184B" cx="287" cy="89" r="11"/>
<circle opacity="0.5" fill="#ED184B" cx="303" cy="70.5" r="11"/>
<circle opacity="0.5" fill="#ED184B" cx="307.5" cy="116" r="11"/>
<circle opacity="0.5" fill="#ED184B" cx="201.5" cy="96.5" r="11"/>
<rect x="377.5" y="158.5" fill="none" stroke="#282828" stroke-miterlimit="10" width="32.9" height="22"/>
<rect x="410.4" y="158.5" fill="none" stroke="#282828" stroke-miterlimit="10" width="32.9" height="22"/>
<rect x="244.6" y="323.5" fill="none" stroke="#282828" stroke-miterlimit="10" width="32.9" height="22"/>
<rect x="250" y="345.5" fill="none" stroke="#282828" stroke-miterlimit="10" width="32.9" height="22"/>
<rect x="277.6" y="323.5" fill="none" stroke="#282828" stroke-miterlimit="10" width="32.9" height="22"/>
<rect x="283.6" y="345.5" fill="none" stroke="#282828" stroke-miterlimit="10" width="32.9" height="22"/>
<rect x="259.6" y="367.5" fill="none" stroke="#282828" stroke-miterlimit="10" width="32.9" height="22"/>
<rect x="293" y="367.5" fill="none" stroke="#282828" stroke-miterlimit="10" width="32.9" height="22"/>
<rect x="341.1" y="367.5" fill="none" stroke="#282828" stroke-miterlimit="10" width="32.9" height="22"/>
<rect x="374" y="367.5" fill="none" stroke="#282828" stroke-miterlimit="10" width="32.9" height="22"/>
<rect x="406.9" y="367.5" fill="none" stroke="#282828" stroke-miterlimit="10" width="32.9" height="22"/>
<rect x="390.4" y="345.5" fill="none" stroke="#282828" stroke-miterlimit="10" width="32.9" height="22"/>
<rect x="357.6" y="345.5" fill="none" stroke="#282828" stroke-miterlimit="10" width="32.9" height="22"/>
<rect x="353.6" y="389.5" fill="none" stroke="#282828" stroke-miterlimit="10" width="32.9" height="22"/>
<rect x="386.4" y="389.5" fill="none" stroke="#282828" stroke-miterlimit="10" width="32.9" height="22"/>
<rect x="418.4" y="389.5" fill="none" stroke="#282828" stroke-miterlimit="10" width="32.9" height="22"/>
<rect x="446.6" y="347.5" fill="none" stroke="#282828" stroke-miterlimit="10" width="32.9" height="22"/>
<rect x="226.6" y="367.5" fill="none" stroke="#282828" stroke-miterlimit="10" width="32.9" height="22"/>
<rect x="443.3" y="158.5" fill="none" stroke="#282828" stroke-miterlimit="10" width="32.9" height="22"/>
<rect x="476.2" y="158.5" fill="none" stroke="#282828" stroke-miterlimit="10" width="32.9" height="22"/>
<rect x="509.1" y="158.5" fill="none" stroke="#282828" stroke-miterlimit="10" width="32.9" height="22"/>
<rect x="541.9" y="158.5" fill="none" stroke="#282828" stroke-miterlimit="10" width="32.9" height="22"/>
<rect x="574.8" y="158.5" fill="none" stroke="#282828" stroke-miterlimit="10" width="32.9" height="22"/>
<rect x="607.7" y="158.5" fill="none" stroke="#282828" stroke-miterlimit="10" width="32.9" height="22"/>
<rect x="640.6" y="158.5" fill="none" stroke="#282828" stroke-miterlimit="10" width="32.9" height="22"/>
<rect x="377.5" y="180.5" fill="none" stroke="#282828" stroke-miterlimit="10" width="32.9" height="22"/>
<rect x="410.4" y="180.5" fill="none" stroke="#282828" stroke-miterlimit="10" width="32.9" height="22"/>
<rect x="443.3" y="180.5" fill="none" stroke="#282828" stroke-miterlimit="10" width="32.9" height="22"/>
<rect x="476.2" y="180.5" fill="none" stroke="#282828" stroke-miterlimit="10" width="32.9" height="22"/>
<rect x="509.1" y="180.5" fill="none" stroke="#282828" stroke-miterlimit="10" width="32.9" height="22"/>
<rect x="541.9" y="180.5" fill="none" stroke="#282828" stroke-miterlimit="10" width="32.9" height="22"/>
<rect x="574.8" y="180.5" fill="none" stroke="#282828" stroke-miterlimit="10" width="32.9" height="22"/>
<rect x="607.7" y="180.5" fill="none" stroke="#282828" stroke-miterlimit="10" width="32.9" height="22"/>
<rect x="640.6" y="180.5" fill="none" stroke="#282828" stroke-miterlimit="10" width="32.9" height="22"/>
<rect x="377.5" y="202.5" fill="none" stroke="#282828" stroke-miterlimit="10" width="32.9" height="22"/>
<rect x="410.4" y="202.5" fill="none" width="32.9" height="22"/>
<rect x="443.3" y="202.5" fill="none" stroke="#282828" stroke-miterlimit="10" width="32.9" height="22"/>
<rect x="476.2" y="202.5" fill="none" stroke="#282828" stroke-miterlimit="10" width="32.9" height="22"/>
<rect x="509.1" y="202.5" fill="none" stroke="#282828" stroke-miterlimit="10" width="32.9" height="22"/>
<rect x="541.9" y="202.5" fill="none" stroke="#282828" stroke-miterlimit="10" width="32.9" height="22"/>
<rect x="574.8" y="202.5" fill="none" stroke="#282828" stroke-miterlimit="10" width="32.9" height="22"/>
<rect x="607.7" y="202.5" fill="none" stroke="#282828" stroke-miterlimit="10" width="32.9" height="22"/>
<rect x="640.6" y="202.5" fill="none" stroke="#282828" stroke-miterlimit="10" width="32.9" height="22"/>
<rect x="127.5" y="229" fill="none" width="104" height="13.5"/>
<text transform="matrix(1 0 0 1 127.5 237.52)" font-family="'MyriadPro-Regular'" font-size="12">Heat map of presses</text>
<rect x="494.7" y="229" fill="none" width="94.5" height="16"/>
<text transform="matrix(1 0 0 1 494.6945 237.52)" font-family="'MyriadPro-Regular'" font-size="12">Original typing UI</text>
<rect x="308.6" y="440" fill="none" width="98" height="15"/>
<text transform="matrix(1 0 0 1 308.5555 448.5195)" font-family="'MyriadPro-Regular'" font-size="12">Modified typing UI</text>
</svg>
