<?xml version="1.0" encoding="utf-8"?>
<!-- Generator: Adobe Illustrator 17.1.0, SVG Export Plug-In . SVG Version: 6.00 Build 0)  -->
<!DOCTYPE svg PUBLIC "-//W3C//DTD SVG 1.1//EN" "http://www.w3.org/Graphics/SVG/1.1/DTD/svg11.dtd">
<svg version="1.1" id="Layer_1" xmlns="http://www.w3.org/2000/svg" xmlns:xlink="http://www.w3.org/1999/xlink" x="0px" y="0px"
	 viewBox="0 0 720 480" enable-background="new 0 0 720 480" xml:space="preserve">
<line fill="none" stroke="#000000" stroke-miterlimit="10" x1="417" y1="194" x2="510.7" y2="194"/>
<line fill="none" stroke="#000000" stroke-miterlimit="10" x1="445.3" y1="154" x2="512" y2="154"/>
<line fill="none" stroke="#000000" stroke-miterlimit="10" x1="414.7" y1="114" x2="508.3" y2="114"/>
<line fill="none" stroke="#000000" stroke-miterlimit="10" x1="442.3" y1="94" x2="510.7" y2="94"/>
<line fill="none" stroke="#000000" stroke-miterlimit="10" x1="99.7" y1="92" x2="74" y2="77.3"/>
<line fill="none" stroke="#000000" stroke-miterlimit="10" x1="74.3" y1="174" x2="97.3" y2="154"/>
<line fill="none" stroke="#000000" stroke-miterlimit="10" x1="74.3" y1="194" x2="74.3" y2="174"/>
<line fill="none" stroke="#000000" stroke-miterlimit="10" x1="74.3" y1="136" x2="74.3" y2="116"/>
<line fill="none" stroke="#000000" stroke-miterlimit="10" x1="74.3" y1="174" x2="74.3" y2="134"/>
<line fill="none" stroke="#000000" stroke-miterlimit="10" x1="99.7" y1="151.5" x2="99.7" y2="95.3"/>
<line fill="none" stroke="#000000" stroke-miterlimit="10" x1="74.3" y1="116.5" x2="74.3" y2="75.3"/>
<rect x="42.5" y="49.5" fill="none" stroke="#000000" stroke-miterlimit="10" width="296" height="173"/>
<rect x="381.5" y="49.5" fill="none" stroke="#000000" stroke-miterlimit="10" width="296" height="173"/>
<rect x="216" y="259" fill="none" stroke="#000000" stroke-miterlimit="10" width="296" height="173"/>
<rect x="42.5" y="49.5" fill="#FFFFFF" stroke="#000000" stroke-miterlimit="10" width="296" height="13.9"/>
<rect x="259" y="63.4" fill="none" stroke="#000000" stroke-miterlimit="10" width="79.5" height="159.1"/>
<line fill="none" stroke="#000000" stroke-miterlimit="10" x1="263.5" y1="72.8" x2="269" y2="72.8"/>
<line fill="none" stroke="#000000" stroke-miterlimit="10" x1="263.5" y1="84" x2="269" y2="84"/>
<line fill="none" stroke="#000000" stroke-miterlimit="10" x1="263.5" y1="95.3" x2="269" y2="95.3"/>
<line fill="none" stroke="#000000" stroke-miterlimit="10" x1="263.5" y1="106.5" x2="269" y2="106.5"/>
<line fill="none" stroke="#000000" stroke-miterlimit="10" x1="274.5" y1="106.5" x2="280" y2="106.5"/>
<line fill="none" stroke="#000000" stroke-miterlimit="10" x1="274.5" y1="117.8" x2="280" y2="117.8"/>
<line fill="none" stroke="#000000" stroke-miterlimit="10" x1="274.5" y1="129" x2="280" y2="129"/>
<line fill="none" stroke="#000000" stroke-miterlimit="10" x1="274.5" y1="140.3" x2="280" y2="140.3"/>
<line fill="none" stroke="#000000" stroke-miterlimit="10" x1="274.5" y1="151.5" x2="280" y2="151.5"/>
<line fill="none" stroke="#000000" stroke-miterlimit="10" x1="274.5" y1="106.5" x2="274.5" y2="151.5"/>
<line fill="none" stroke="#000000" stroke-miterlimit="10" x1="263.5" y1="72.8" x2="263.5" y2="106.5"/>
<line fill="none" stroke="#000000" stroke-miterlimit="10" x1="268.2" y1="106.5" x2="275.5" y2="106.5"/>
<rect x="381.5" y="49.5" fill="#FFFFFF" stroke="#000000" stroke-miterlimit="10" width="296" height="13.9"/>
<rect x="598" y="63.4" fill="none" stroke="#000000" stroke-miterlimit="10" width="79.5" height="159.1"/>
<line fill="none" stroke="#000000" stroke-miterlimit="10" x1="602.5" y1="72.8" x2="608" y2="72.8"/>
<line fill="none" stroke="#000000" stroke-miterlimit="10" x1="602.5" y1="84" x2="608" y2="84"/>
<line fill="none" stroke="#000000" stroke-miterlimit="10" x1="602.5" y1="95.3" x2="608" y2="95.3"/>
<line fill="none" stroke="#000000" stroke-miterlimit="10" x1="602.5" y1="106.5" x2="608" y2="106.5"/>
<line fill="none" stroke="#000000" stroke-miterlimit="10" x1="613.5" y1="106.5" x2="619" y2="106.5"/>
<line fill="none" stroke="#000000" stroke-miterlimit="10" x1="613.5" y1="117.8" x2="619" y2="117.8"/>
<line fill="none" stroke="#000000" stroke-miterlimit="10" x1="613.5" y1="129" x2="619" y2="129"/>
<line fill="none" stroke="#000000" stroke-miterlimit="10" x1="613.5" y1="140.3" x2="619" y2="140.3"/>
<line fill="none" stroke="#000000" stroke-miterlimit="10" x1="613.5" y1="151.5" x2="619" y2="151.5"/>
<line fill="none" stroke="#000000" stroke-miterlimit="10" x1="613.5" y1="106.5" x2="613.5" y2="151.5"/>
<line fill="none" stroke="#000000" stroke-miterlimit="10" x1="602.5" y1="72.8" x2="602.5" y2="106.5"/>
<line fill="none" stroke="#000000" stroke-miterlimit="10" x1="607.2" y1="106.5" x2="614.5" y2="106.5"/>
<rect x="216" y="259" fill="#FFFFFF" stroke="#000000" stroke-miterlimit="10" width="296" height="13.9"/>
<rect x="432.5" y="272.9" fill="none" stroke="#000000" stroke-miterlimit="10" width="79.5" height="159.1"/>
<line fill="none" stroke="#000000" stroke-miterlimit="10" x1="437" y1="282.3" x2="442.5" y2="282.3"/>
<line fill="none" stroke="#000000" stroke-miterlimit="10" x1="437" y1="293.5" x2="442.5" y2="293.5"/>
<line fill="none" stroke="#000000" stroke-miterlimit="10" x1="437" y1="304.8" x2="442.5" y2="304.8"/>
<line fill="none" stroke="#000000" stroke-miterlimit="10" x1="437" y1="316" x2="442.5" y2="316"/>
<line fill="none" stroke="#000000" stroke-miterlimit="10" x1="448" y1="316" x2="453.5" y2="316"/>
<line fill="none" stroke="#000000" stroke-miterlimit="10" x1="448" y1="327.3" x2="453.5" y2="327.3"/>
<line fill="none" stroke="#000000" stroke-miterlimit="10" x1="448" y1="338.5" x2="453.5" y2="338.5"/>
<line fill="none" stroke="#000000" stroke-miterlimit="10" x1="448" y1="349.8" x2="453.5" y2="349.8"/>
<line fill="none" stroke="#000000" stroke-miterlimit="10" x1="448" y1="361" x2="453.5" y2="361"/>
<line fill="none" stroke="#000000" stroke-miterlimit="10" x1="448" y1="316" x2="448" y2="361"/>
<line fill="none" stroke="#000000" stroke-miterlimit="10" x1="437" y1="282.3" x2="437" y2="316"/>
<line fill="none" stroke="#000000" stroke-miterlimit="10" x1="441.7" y1="316" x2="449" y2="316"/>
<circle fill="#309ABA" cx="74.3" cy="194" r="6.7"/>
<circle fill="#309ABA" cx="74.3" cy="174" r="6.7"/>
<circle fill="#309ABA" cx="99.7" cy="154" r="6.7"/>
<circle fill="#309ABA" cx="74.3" cy="134" r="6.7"/>
<circle fill="#309ABA" cx="74.3" cy="114" r="6.7"/>
<circle fill="#309ABA" cx="74.3" cy="75.3" r="6.7"/>
<circle fill="#309ABA" cx="99.7" cy="94" r="6.7"/>
<line fill="none" stroke="#000000" stroke-miterlimit="10" x1="370.5" y1="301.3" x2="344.8" y2="286.7"/>
<line fill="none" stroke="#000000" stroke-miterlimit="10" x1="345.2" y1="383.3" x2="368.2" y2="363.3"/>
<line fill="none" stroke="#000000" stroke-miterlimit="10" x1="345.2" y1="403.3" x2="345.2" y2="383.3"/>
<line fill="none" stroke="#000000" stroke-miterlimit="10" x1="345.2" y1="345.3" x2="345.2" y2="325.3"/>
<line fill="none" stroke="#000000" stroke-miterlimit="10" x1="345.2" y1="383.3" x2="345.2" y2="343.3"/>
<line fill="none" stroke="#000000" stroke-miterlimit="10" x1="370.5" y1="360.8" x2="370.5" y2="304.6"/>
<line fill="none" stroke="#000000" stroke-miterlimit="10" x1="345.2" y1="325.8" x2="345.2" y2="284.7"/>
<circle fill="#309ABA" cx="345.2" cy="403.3" r="6.7"/>
<circle fill="#309ABA" cx="345.2" cy="383.3" r="6.7"/>
<circle fill="#309ABA" cx="370.5" cy="363.3" r="6.7"/>
<circle fill="#309ABA" cx="345.2" cy="343.3" r="6.7"/>
<circle fill="#309ABA" cx="345.2" cy="323.3" r="6.7"/>
<circle fill="#309ABA" cx="345.2" cy="284.7" r="6.7"/>
<circle fill="#309ABA" cx="370.5" cy="303.3" r="6.7"/>
<line fill="none" stroke="#000000" stroke-miterlimit="10" x1="245" y1="384" x2="268" y2="364"/>
<line fill="none" stroke="#000000" stroke-miterlimit="10" x1="245" y1="404" x2="245" y2="384"/>
<line fill="none" stroke="#000000" stroke-miterlimit="10" x1="245" y1="346" x2="245" y2="326"/>
<line fill="none" stroke="#000000" stroke-miterlimit="10" x1="245" y1="384" x2="245" y2="344"/>
<line fill="none" stroke="#000000" stroke-miterlimit="10" x1="270.3" y1="365.8" x2="261" y2="316"/>
<circle fill="#309ABA" cx="245" cy="404" r="6.7"/>
<circle fill="#309ABA" cx="245" cy="384" r="6.7"/>
<circle fill="#309ABA" cx="270.3" cy="364" r="6.7"/>
<circle fill="#309ABA" cx="245" cy="344" r="6.7"/>
<circle fill="#309ABA" cx="245" cy="324" r="6.7"/>
<circle fill="#309ABA" cx="261" cy="316" r="6.7"/>
<line fill="none" stroke="#000000" stroke-miterlimit="10" x1="442.3" y1="92" x2="416.7" y2="77.3"/>
<line fill="none" stroke="#000000" stroke-miterlimit="10" x1="417" y1="174" x2="440" y2="154"/>
<line fill="none" stroke="#000000" stroke-miterlimit="10" x1="417" y1="194" x2="417" y2="174"/>
<line fill="none" stroke="#000000" stroke-miterlimit="10" x1="417" y1="136" x2="417" y2="116"/>
<line fill="none" stroke="#000000" stroke-miterlimit="10" x1="417" y1="174" x2="417" y2="134"/>
<line fill="none" stroke="#000000" stroke-miterlimit="10" x1="512" y1="191.5" x2="512" y2="151.5"/>
<line fill="none" stroke="#000000" stroke-miterlimit="10" x1="512" y1="147.3" x2="512" y2="111.3"/>
<line fill="none" stroke="#000000" stroke-miterlimit="10" x1="512" y1="117.8" x2="512" y2="92"/>
<line fill="none" stroke="#000000" stroke-miterlimit="10" x1="442.3" y1="151.5" x2="442.3" y2="95.3"/>
<line fill="none" stroke="#000000" stroke-miterlimit="10" x1="417" y1="116.5" x2="417" y2="75.3"/>
<circle fill="#309ABA" cx="417" cy="194" r="6.7"/>
<circle fill="#CA7829" cx="512" cy="194" r="6.7"/>
<circle fill="#CA7829" cx="512" cy="154" r="6.7"/>
<circle fill="#CA7829" cx="512" cy="114" r="6.7"/>
<circle fill="#CA7829" cx="512" cy="94" r="6.7"/>
<circle fill="#309ABA" cx="417" cy="174" r="6.7"/>
<circle fill="#309ABA" cx="442.3" cy="154" r="6.7"/>
<circle fill="#309ABA" cx="417" cy="134" r="6.7"/>
<circle fill="#309ABA" cx="417" cy="114" r="6.7"/>
<circle fill="#309ABA" cx="417" cy="75.3" r="6.7"/>
<circle fill="#309ABA" cx="442.3" cy="94" r="6.7"/>
<g>
	<path fill="none" stroke="#000000" stroke-miterlimit="10" d="M255.2,306.2c2.6-4.9,8.4-6.9,12.8-4.5"/>
	<line fill="none" stroke="#000000" stroke-miterlimit="10" x1="255.2" y1="306.2" x2="258.9" y2="305.7"/>
	<line fill="none" stroke="#000000" stroke-miterlimit="10" x1="255.4" y1="306.7" x2="254.3" y2="303.2"/>
</g>
<line fill="none" stroke="#000000" stroke-miterlimit="10" x1="289.3" y1="343.3" x2="317.7" y2="343.3"/>
<line fill="none" stroke="#000000" stroke-miterlimit="10" x1="317.7" y1="343.3" x2="310.3" y2="338.5"/>
<line fill="none" stroke="#000000" stroke-miterlimit="10" x1="317.7" y1="343.3" x2="310.3" y2="350"/>
<rect x="148" y="227.5" fill="none" width="57" height="12.5"/>
<text transform="matrix(1 0 0 1 148 236.0195)" font-family="'MyriadPro-Regular'" font-size="12">Overview</text>
<rect x="486" y="228.8" fill="none" width="87" height="14"/>
<text transform="matrix(1 0 0 1 486 237.2695)" font-family="'MyriadPro-Regular'" font-size="12">Single File View</text>
<rect x="340.1" y="438.5" fill="none" width="47.8" height="16.5"/>
<text transform="matrix(1 0 0 1 340.1138 447.0195)" font-family="'MyriadPro-Regular'" font-size="12">Merging</text>
</svg>
